%FSTAX23Y23*%
%MOIN*%
%SFA1B1*%

%IPPOS*%
%ADD9500C,0.007874*%
%ADD9501C,0.011811*%
%ADD9502C,0.033465*%
%ADD9503C,0.045354*%
%ADD9504C,0.118110*%
%LNsysdev3-roundholes-1*%
%LPD*%
G54D9500*
X00281Y-01484D03*
X00265Y-01397D03*
X00354Y-01377D03*
X00366Y-01452D03*
X00444D03*
X00531Y-01456D03*
X00571Y-01309D03*
X0058Y-01269D03*
X00561Y-0123D03*
X00531Y-01181D03*
Y-01161D03*
X00462Y-01151D03*
Y-01092D03*
X00403D03*
X00374Y-01013D03*
X00334D03*
X00295D03*
X00255D03*
X00226D03*
X00246Y-01043D03*
X00187D03*
X00098D03*
X00216Y-01328D03*
X00354Y-01259D03*
X00653Y-01242D03*
X00652Y-0112D03*
X0058Y-01122D03*
X00561Y-01003D03*
X00654Y-01005D03*
X00575Y-00919D03*
X00797Y-00915D03*
X00825Y-00913D03*
X00773Y-00891D03*
X00895Y-01013D03*
X00893Y-01181D03*
X00885Y-01208D03*
X00875Y-01269D03*
X00836D03*
X00797Y-0127D03*
X00816Y-0119D03*
X00777D03*
X00797Y-01162D03*
X00749Y-01213D03*
X00679Y-01358D03*
Y-01407D03*
X00696Y-01429D03*
X00759Y-01429D03*
X00826Y-01417D03*
X00954D03*
X01062Y-01427D03*
X01122D03*
X01195Y-0143D03*
X01328Y-01427D03*
X01392Y-0143D03*
X01387Y-01279D03*
X01486D03*
X01476Y-01348D03*
X01515Y-01397D03*
X01614Y-01427D03*
X01618Y-01254D03*
X01618Y-0122D03*
X01653Y-01228D03*
X01574Y-01269D03*
X01773Y-01255D03*
X0184Y-01259D03*
X01958Y-01279D03*
X01998D03*
X01978Y-01417D03*
X02116D03*
X02224D03*
X02372Y-01269D03*
Y-0122D03*
X02244Y-00935D03*
X02057Y-00944D03*
X01978D03*
X01742D03*
X01692D03*
X01653Y-00927D03*
X01582Y-00901D03*
X01511Y-00944D03*
X01484Y-00933D03*
X01458Y-0101D03*
X0148Y-01036D03*
X01334Y-00952D03*
X01377Y-00905D03*
X01314Y-01196D03*
X01266Y-0121D03*
X01263Y-01177D03*
X01228Y-01181D03*
X01141Y-01161D03*
Y-01149D03*
X01151Y-01062D03*
X01088Y-01212D03*
X01094Y-01277D03*
X00964Y-01255D03*
X0095Y-0123D03*
X00948Y-01129D03*
X00962Y-01103D03*
X00925Y-01043D03*
X0091Y-01053D03*
X0092Y-00986D03*
X01013Y-00938D03*
X01003Y-00913D03*
X00984Y-00885D03*
X01023Y-0119D03*
X01299Y-01251D03*
X01275Y-01275D03*
X01889Y-01348D03*
X0247Y-01358D03*
Y-0125D03*
X02706D03*
X02805D03*
Y-01358D03*
X02814Y-01446D03*
X02618Y-01358D03*
Y-01053D03*
X02637Y-01033D03*
X0261Y-01015D03*
X02578D03*
X02547Y-01031D03*
X02515D03*
X02519Y-00777D03*
X02618Y-00807D03*
Y-00679D03*
X02667D03*
X02746D03*
X02696Y-00728D03*
X02805D03*
X02763Y-00771D03*
X02785Y-0057D03*
X02814Y-00472D03*
X02837Y-00452D03*
X02746Y-00334D03*
X02805Y-00246D03*
X02484Y-00229D03*
X02483Y-00159D03*
X02529Y-00135D03*
Y-00334D03*
Y-00452D03*
X0247Y-00393D03*
X0248Y00187D03*
X02578Y00185D03*
X02637D03*
X02696D03*
X02755D03*
X02814D03*
X02874D03*
X02874Y0023D03*
X02933Y00185D03*
X03021Y00187D03*
Y00118D03*
Y00029D03*
X031Y00187D03*
X03139Y00354D03*
X031Y00423D03*
Y00482D03*
X03031Y00452D03*
X02962Y00423D03*
Y00482D03*
X02893Y00452D03*
X02874Y00393D03*
X02785Y00433D03*
X02765Y00501D03*
Y00541D03*
Y0058D03*
X02834D03*
X02864Y0059D03*
Y00551D03*
X02824D03*
Y00492D03*
Y0061D03*
X02864Y00669D03*
X02713Y00663D03*
X02687Y00482D03*
X02667Y00452D03*
X02627Y00423D03*
X02716Y00393D03*
X02755Y00344D03*
X02814Y00295D03*
X0248Y00344D03*
X02549Y00511D03*
X02519Y0061D03*
Y00639D03*
X0249Y00669D03*
X02461Y00668D03*
X0243Y00608D03*
X02366Y00559D03*
X02332Y0057D03*
Y00649D03*
X02249Y00671D03*
X02165Y00649D03*
Y0059D03*
X0211Y00535D03*
X02007Y00452D03*
X01919Y00472D03*
X01893Y00452D03*
X0184Y00501D03*
Y0058D03*
X01846Y00606D03*
X01874Y00622D03*
Y00645D03*
X02017Y00629D03*
X01938Y00551D03*
X01685Y00606D03*
Y00625D03*
X01564Y00639D03*
Y00561D03*
Y00482D03*
X01692D03*
Y00452D03*
X01684Y0029D03*
X01722Y00226D03*
X01751D03*
X01801Y00147D03*
X0181Y00117D03*
X0183Y00097D03*
X0183Y00059D03*
X01826Y00044D03*
X0184Y0D03*
Y-00019D03*
X01781D03*
Y0D03*
X01742Y-00009D03*
Y-00029D03*
X01706Y-00038D03*
X01692Y-00029D03*
Y-00049D03*
X0174Y-00116D03*
X01791Y-00108D03*
X0182Y-00117D03*
X0185Y-00078D03*
X01938Y-00009D03*
X01964Y00122D03*
X01978Y00118D03*
X01958Y00137D03*
Y00177D03*
X01998D03*
X01978Y00196D03*
X02037Y00157D03*
X02066Y00167D03*
X02096Y00246D03*
X02155Y00226D03*
X02175Y00206D03*
Y00187D03*
X02224Y00177D03*
Y00226D03*
Y00344D03*
X02155D03*
X02273Y00423D03*
X02248Y00478D03*
X02451Y00478D03*
X02431Y00374D03*
X0244Y00324D03*
X02332Y00265D03*
X02322Y00177D03*
Y00049D03*
X02175Y00039D03*
X02185Y-00039D03*
X02165D03*
X02106Y-00049D03*
X02092Y-00044D03*
X02086Y-00029D03*
X02102Y-00145D03*
X02137D03*
X01929Y-00177D03*
Y-00216D03*
Y-00255D03*
X01901Y-00247D03*
X01929Y-00295D03*
Y-00334D03*
Y-00374D03*
Y-00413D03*
Y-00452D03*
X01889Y-00448D03*
X01889Y-0059D03*
X01887Y-00622D03*
X01854Y-00619D03*
X01841Y-0063D03*
X0187Y-00659D03*
X01783Y-00641D03*
X01769Y-00627D03*
X01766Y-00561D03*
X01781Y-00545D03*
X01669Y-00586D03*
Y-00618D03*
X01637D03*
X01535Y-00659D03*
Y-00688D03*
X01496Y-00787D03*
X01466D03*
X01338D03*
Y-00816D03*
X01338Y-00845D03*
X0131Y-0087D03*
X01401Y-00881D03*
X0161Y-00873D03*
X01585Y-00844D03*
X01779Y-00756D03*
X0178Y-00727D03*
X01808Y-00726D03*
X01929Y-0059D03*
X01968D03*
X01992Y-0057D03*
X02015Y-0059D03*
X02057Y-00629D03*
Y-00787D03*
Y-00866D03*
X02204D03*
Y-00708D03*
X02263Y-0059D03*
X02322D03*
Y-00787D03*
X02224Y-00442D03*
X02194Y-00452D03*
X02165D03*
X02411Y-00334D03*
X02386Y-00262D03*
X0245Y-00157D03*
X01653Y-00285D03*
X01643Y-00295D03*
X01593Y-00351D03*
X01535Y-00433D03*
Y-00462D03*
Y-00492D03*
X01456Y-00393D03*
X01405Y-00327D03*
X01417Y-00314D03*
X01393Y-00339D03*
X01299Y-00413D03*
Y-00521D03*
Y-00551D03*
X0125Y-00659D03*
Y-00688D03*
X00935D03*
Y-00659D03*
X00974Y-00858D03*
X01003Y-00866D03*
X00964Y-00324D03*
Y-00295D03*
X01124Y-00277D03*
X01122Y-00226D03*
X01098Y-00204D03*
X01082Y-00236D03*
X01131Y-00187D03*
X01194Y-00202D03*
X0121Y-00177D03*
X01187Y-00152D03*
X01203Y-00099D03*
X0121Y-00019D03*
X0122Y-00009D03*
X0123Y0D03*
X01275Y00053D03*
X01289Y00039D03*
X01269Y00167D03*
X01289Y00236D03*
Y00344D03*
Y00442D03*
X0124Y0058D03*
Y0061D03*
Y00639D03*
X01213Y00622D03*
X01187Y00578D03*
X01269Y00669D03*
X01446Y00275D03*
X01449Y00241D03*
X01516Y00195D03*
X01505Y00165D03*
X01486Y00137D03*
Y00108D03*
X01517Y00068D03*
X01518Y00033D03*
X01517Y0D03*
X01535Y-00098D03*
X01521Y-00138D03*
X01505Y-00142D03*
X01516Y-00154D03*
X01465Y-00166D03*
X01456Y-00208D03*
X01299Y-002D03*
X01272Y-00212D03*
X0125Y-00187D03*
X01172Y-00251D03*
X0117Y-00305D03*
X01181Y-00334D03*
Y-00413D03*
X01092Y-00364D03*
X01062Y-00039D03*
Y0D03*
Y00059D03*
Y0009D03*
X01624Y00098D03*
Y00078D03*
X00846Y00127D03*
X00816Y00098D03*
X00777Y00068D03*
Y00187D03*
X00826D03*
X00895Y00216D03*
X00836Y00344D03*
X00807D03*
X00777Y00305D03*
X00659Y00246D03*
X006D03*
X00541D03*
X006Y00088D03*
X00649Y00029D03*
X0062Y-00098D03*
X0057D03*
X00492D03*
Y-00216D03*
Y-00265D03*
X00601Y-00262D03*
X00607Y-00153D03*
X00708Y-00187D03*
X00728Y-00216D03*
X00758Y-00235D03*
X00854Y-00196D03*
X00846Y-00181D03*
X00907Y-00196D03*
X00885Y-00393D03*
X00816Y-00452D03*
X00757Y-00492D03*
Y-00521D03*
Y-0059D03*
Y-0062D03*
X00686Y-00622D03*
X00688Y-00797D03*
X00669Y-00816D03*
X00649Y-00836D03*
X00598Y-0074D03*
X00586Y-00728D03*
X00562Y-00708D03*
X00531Y-0059D03*
X00541Y-00501D03*
X00442D03*
X00383Y-0059D03*
X00403Y-00728D03*
Y-00807D03*
X00783Y-00852D03*
X00874Y-00798D03*
X00692Y-00433D03*
X0072Y-00392D03*
X00717Y-00364D03*
X00662Y-00373D03*
X00612Y-00395D03*
X0058Y-00423D03*
X00559Y-00405D03*
X00527D03*
X00521Y-00354D03*
X00383Y-00344D03*
X00344D03*
X00305Y-00393D03*
X006Y-00452D03*
X00619Y-00457D03*
X00442Y0D03*
X00383Y00049D03*
X00324Y0D03*
Y00098D03*
X00297Y00282D03*
X00317Y00413D03*
X00393Y00433D03*
Y00452D03*
X00413Y00433D03*
Y00413D03*
X0041Y00498D03*
X00405Y00533D03*
X00452Y00531D03*
X00492D03*
X00541Y00533D03*
X00563Y0053D03*
X0061Y00531D03*
X0058Y00482D03*
X00659D03*
X00728D03*
X00777Y00511D03*
Y00541D03*
X00728Y0058D03*
X00708Y0061D03*
Y00659D03*
X00629D03*
X00531Y00669D03*
X00492D03*
X00452D03*
X00413D03*
X00383D03*
X00472Y0057D03*
Y00482D03*
X0078Y00636D03*
X00767Y00688D03*
Y00738D03*
X00748Y00728D03*
X00777Y00816D03*
X00846Y00748D03*
X00708Y00885D03*
Y00935D03*
X00629D03*
X00531Y00944D03*
X00492D03*
X00452D03*
X00413D03*
X00354Y00954D03*
Y00974D03*
X00334D03*
Y00954D03*
Y00994D03*
Y01013D03*
X00354D03*
Y00994D03*
X00295Y01102D03*
X00177Y01082D03*
X00137Y01033D03*
X00157Y01181D03*
X00187D03*
X00138Y01232D03*
X00108Y01328D03*
X00137Y01368D03*
X00226Y01377D03*
X00246Y01309D03*
X00265D03*
Y01289D03*
X00305Y01348D03*
X00177Y01437D03*
X00531Y01427D03*
X0059Y01476D03*
X00767Y01407D03*
X00903Y01409D03*
X00846Y0124D03*
Y01171D03*
X00797D03*
X00728D03*
X00649D03*
X00718Y0124D03*
X00767D03*
X00757Y00964D03*
X0062Y00816D03*
X00561D03*
X00531Y00807D03*
X00492D03*
X00452D03*
X00413D03*
X00383D03*
Y00846D03*
X01064Y00797D03*
X01084Y00762D03*
X01122Y00767D03*
Y00797D03*
X01152Y00768D03*
X01161Y00826D03*
X012D03*
X0124D03*
X01258Y00803D03*
X01223Y00796D03*
X01279Y00828D03*
X01545Y00826D03*
Y00846D03*
X01633D03*
X01649Y00839D03*
X0166Y00851D03*
X01673Y00826D03*
X01683Y00875D03*
X01722D03*
X01702Y00895D03*
X01742D03*
X0183D03*
X0182Y00816D03*
X01822Y00787D03*
X01783Y00771D03*
X01704Y00748D03*
X01633Y00679D03*
X01614D03*
X01525Y00688D03*
Y00757D03*
X01609Y00912D03*
X01608Y00927D03*
X01663Y00935D03*
X01793Y00952D03*
X0182Y01033D03*
X0185Y01043D03*
X01834Y01078D03*
X01803D03*
X01771D03*
X0174D03*
X01708D03*
Y0111D03*
Y01141D03*
Y01173D03*
Y01204D03*
X0174D03*
X01771D03*
X01803D03*
X01834D03*
Y01173D03*
Y01141D03*
Y0111D03*
X01879Y01112D03*
X01879Y01244D03*
X01909Y01269D03*
X01899Y01318D03*
X01929Y01338D03*
X01978D03*
X02017D03*
X02057Y01368D03*
X02096Y01318D03*
X02087Y01277D03*
X02086Y0126D03*
X02076Y0122D03*
Y012D03*
Y01181D03*
X02032Y01253D03*
X02145Y01279D03*
X02173Y01268D03*
X02222Y01281D03*
X0223Y01237D03*
X02197Y01223D03*
X02214Y0119D03*
X02196Y01153D03*
X02204Y01082D03*
X02244Y01072D03*
X02283D03*
X02322Y0109D03*
Y01053D03*
Y01015D03*
X02283D03*
X02251D03*
X02218Y01012D03*
X02203Y00955D03*
X02244Y00925D03*
Y00889D03*
X02263Y00856D03*
X02244Y00807D03*
X02283Y00783D03*
X02346Y00791D03*
X02372Y00826D03*
X0237Y00877D03*
X02362Y00915D03*
X02322D03*
X02283D03*
X02311Y00877D03*
Y00826D03*
X02324Y00752D03*
X02244Y00738D03*
X02145D03*
X02165Y00708D03*
X02169Y00795D03*
X02171Y00843D03*
X02169Y00873D03*
X02176Y00903D03*
X02096Y00905D03*
X02066Y00895D03*
X02027D03*
Y00925D03*
X01998Y00885D03*
X01948Y00875D03*
Y00846D03*
X01968Y00816D03*
X01919D03*
X0187D03*
X01899Y00738D03*
X01948D03*
X01998D03*
X02047D03*
X02096D03*
Y00816D03*
X02086Y00944D03*
X02125Y00938D03*
X02135Y00984D03*
X02106Y01003D03*
X02122Y01042D03*
X02047Y01062D03*
X01938Y01003D03*
Y00964D03*
X01968Y00944D03*
X01919Y00875D03*
X02401Y00856D03*
X02431D03*
X02425Y00881D03*
X02429Y00913D03*
X02393Y00905D03*
X02395Y00936D03*
X02397Y01015D03*
X02425Y01011D03*
X02448D03*
X02456Y0103D03*
X02437Y01031D03*
X02411Y01053D03*
X02413Y0109D03*
X0246D03*
X02362D03*
Y01053D03*
Y01015D03*
X02464Y00996D03*
X0246Y00881D03*
X02389Y00722D03*
X02362Y01153D03*
X02323Y01153D03*
X02279Y01153D03*
X02263Y012D03*
X02312D03*
X02372Y01476D03*
X0244Y01407D03*
X01968Y01417D03*
X0183Y01318D03*
X01761Y01309D03*
X01732Y01318D03*
X01702Y01309D03*
Y0125D03*
X01761D03*
X01663Y01171D03*
X01535Y01141D03*
X01515Y01161D03*
X01456D03*
Y01112D03*
Y01092D03*
X01564Y01105D03*
X01594Y01299D03*
X01633Y01318D03*
X01574Y01417D03*
X01722D03*
X01301Y01288D03*
X01291Y01086D03*
X01171Y01092D03*
Y01181D03*
X01033Y01112D03*
X00994D03*
X01049Y0105D03*
X01053Y01409D03*
X01003D03*
X01151Y01371D03*
X0248Y01185D03*
Y01153D03*
X02496Y01055D03*
X025Y01027D03*
X02476Y01035D03*
X0248Y01011D03*
X02472Y00976D03*
X02523Y00929D03*
X02545Y00929D03*
X02559Y00944D03*
Y00913D03*
X02555Y00891D03*
X02574Y00897D03*
Y00925D03*
X02576Y00962D03*
X0257Y01043D03*
X02543Y01059D03*
X02523Y0107D03*
X02515Y01043D03*
X02661Y01047D03*
Y01082D03*
X02708Y0109D03*
Y01047D03*
X02763D03*
Y01082D03*
X02788Y01077D03*
X02822Y0107D03*
X02848Y01064D03*
X02844Y01033D03*
X02797Y01034D03*
X02822Y00996D03*
X02871Y01001D03*
X02874Y01053D03*
X02864Y01141D03*
X02839Y01136D03*
X02814Y01141D03*
X02795Y01181D03*
X02844D03*
X02873Y01169D03*
X02864Y0122D03*
X02814D03*
X02775D03*
X02726D03*
X02746Y0119D03*
X02765Y01151D03*
X02716Y01161D03*
X02667D03*
X02687Y012D03*
X02657Y0122D03*
X02608D03*
X02661Y01011D03*
X02763Y00996D03*
X02824Y00935D03*
Y00875D03*
Y00816D03*
Y00757D03*
Y00728D03*
X02834Y00698D03*
X02864Y00708D03*
X02893Y00787D03*
Y00846D03*
Y00905D03*
Y00964D03*
X02962Y00935D03*
Y00875D03*
Y00816D03*
Y00757D03*
X03031Y00787D03*
Y00875D03*
Y00964D03*
X02736Y00787D03*
X02696D03*
X02715Y00758D03*
X02697Y00731D03*
X02746Y00734D03*
X02667Y00826D03*
X02516Y00773D03*
X02516Y00736D03*
X0249Y00698D03*
X02476Y00773D03*
X02475Y00858D03*
G54D9501*
X02923Y00535D03*
X02962D03*
X03001D03*
X03041D03*
X0308D03*
X0312D03*
X03159D03*
X02982Y00566D03*
X02942D03*
X02899D03*
Y00692D03*
X02942D03*
X02982D03*
X03001Y00724D03*
X02962D03*
X02923D03*
X03041D03*
X0308D03*
X0312D03*
X03159D03*
Y01007D03*
X0312D03*
X0308D03*
X03041D03*
X03001D03*
X02962D03*
X02923D03*
X02942Y01039D03*
X02982D03*
X02899D03*
Y01165D03*
X02942D03*
X02982D03*
X03001Y01196D03*
X02962D03*
X02923D03*
X03041D03*
X0308D03*
X0312D03*
X03159D03*
G54D9502*
X00136Y-0095D03*
X00236D03*
X029D03*
X03D03*
X031D03*
X032D03*
X033D03*
Y-0105D03*
Y-0115D03*
Y-0125D03*
X032D03*
Y-0135D03*
Y-0145D03*
X033D03*
Y-0135D03*
X031D03*
Y-0125D03*
X03D03*
X029D03*
Y-0135D03*
Y-0145D03*
X03D03*
Y-0135D03*
X031Y-0145D03*
Y-0115D03*
X03D03*
Y-0105D03*
X029D03*
Y-0115D03*
X032D03*
Y-0105D03*
X031D03*
Y-0085D03*
Y-0075D03*
X03D03*
X029D03*
Y-0065D03*
X03D03*
X031D03*
X032D03*
Y-0075D03*
X033D03*
Y-0085D03*
X032D03*
X03D03*
X029D03*
Y-0055D03*
Y-0045D03*
X03D03*
X031D03*
Y-0035D03*
X032D03*
Y-0025D03*
X033D03*
Y-0015D03*
Y-0005D03*
X032D03*
Y-0015D03*
X031D03*
Y-0005D03*
X03D03*
X029D03*
Y-0015D03*
X03D03*
Y-0025D03*
Y-0035D03*
X029D03*
Y-0025D03*
X031D03*
X033Y-0035D03*
Y-0045D03*
Y-0055D03*
Y-0065D03*
X032Y-0055D03*
Y-0045D03*
X031Y-0055D03*
X03D03*
X0124Y00293D03*
Y00393D03*
Y00493D03*
X009Y0039D03*
Y0029D03*
X0045D03*
Y0039D03*
X00236Y0035D03*
X00136D03*
Y0025D03*
X00236D03*
Y0015D03*
X00136D03*
Y0005D03*
Y-0005D03*
Y-0015D03*
Y-0025D03*
Y-0035D03*
Y-0045D03*
X00236D03*
Y-0035D03*
Y-0025D03*
Y-0015D03*
Y-0005D03*
Y0005D03*
Y0045D03*
X00136D03*
Y0055D03*
Y0065D03*
X00236D03*
Y0055D03*
Y-0055D03*
Y-0065D03*
X00136D03*
Y-0055D03*
Y-0075D03*
Y-0085D03*
X00236D03*
Y-0075D03*
Y0075D03*
X00136D03*
Y0085D03*
Y0095D03*
X00236D03*
Y0085D03*
X0124Y01037D03*
Y01137D03*
Y01237D03*
Y01337D03*
Y01437D03*
G54D9503*
X02165Y-01358D03*
X03277Y00314D03*
X00275Y01417D03*
X03277D03*
G54D9504*
X03149Y00098D03*
X00393Y01417D03*
X03149D03*
M02*