%FSTAX23Y23*%
%MOIN*%
%SFA1B1*%

%IPPOS*%
%AMD80*
4,1,8,-0.039400,-0.021700,0.039400,-0.021700,0.051200,-0.009800,0.051200,0.009800,0.039400,0.021700,-0.039400,0.021700,-0.051200,0.009800,-0.051200,-0.009800,-0.039400,-0.021700,0.0*
1,1,0.023622,-0.039400,-0.009800*
1,1,0.023622,0.039400,-0.009800*
1,1,0.023622,0.039400,0.009800*
1,1,0.023622,-0.039400,0.009800*
%
%AMD87*
4,1,8,-0.039400,-0.019700,0.039400,-0.019700,0.049200,-0.009800,0.049200,0.009800,0.039400,0.019700,-0.039400,0.019700,-0.049200,0.009800,-0.049200,-0.009800,-0.039400,-0.019700,0.0*
1,1,0.019685,-0.039400,-0.009800*
1,1,0.019685,0.039400,-0.009800*
1,1,0.019685,0.039400,0.009800*
1,1,0.019685,-0.039400,0.009800*
%
%AMD106*
4,1,8,-0.020700,-0.031500,0.020700,-0.031500,0.031500,-0.020700,0.031500,0.020700,0.020700,0.031500,-0.020700,0.031500,-0.031500,0.020700,-0.031500,-0.020700,-0.020700,-0.031500,0.0*
1,1,0.021654,-0.020700,-0.020700*
1,1,0.021654,0.020700,-0.020700*
1,1,0.021654,0.020700,0.020700*
1,1,0.021654,-0.020700,0.020700*
%
%AMD107*
4,1,8,-0.033500,0.020700,-0.033500,-0.020700,-0.020700,-0.033500,0.020700,-0.033500,0.033500,-0.020700,0.033500,0.020700,0.020700,0.033500,-0.020700,0.033500,-0.033500,0.020700,0.0*
1,1,0.025591,-0.020700,0.020700*
1,1,0.025591,-0.020700,-0.020700*
1,1,0.025591,0.020700,-0.020700*
1,1,0.025591,0.020700,0.020700*
%
%AMD108*
4,1,8,-0.031500,0.020700,-0.031500,-0.020700,-0.020700,-0.031500,0.020700,-0.031500,0.031500,-0.020700,0.031500,0.020700,0.020700,0.031500,-0.020700,0.031500,-0.031500,0.020700,0.0*
1,1,0.021654,-0.020700,0.020700*
1,1,0.021654,-0.020700,-0.020700*
1,1,0.021654,0.020700,-0.020700*
1,1,0.021654,0.020700,0.020700*
%
%AMD110*
4,1,8,0.020700,0.033500,-0.020700,0.033500,-0.033500,0.020700,-0.033500,-0.020700,-0.020700,-0.033500,0.020700,-0.033500,0.033500,-0.020700,0.033500,0.020700,0.020700,0.033500,0.0*
1,1,0.025591,0.020700,0.020700*
1,1,0.025591,-0.020700,0.020700*
1,1,0.025591,-0.020700,-0.020700*
1,1,0.025591,0.020700,-0.020700*
%
%ADD10C,0.007874*%
G04~CAMADD=80~8~0.0~0.0~1023.6~433.1~118.1~0.0~15~0.0~0.0~0.0~0.0~0~0.0~0.0~0.0~0.0~0~0.0~0.0~0.0~180.0~1024.0~434.0*
%ADD80D80*%
G04~CAMADD=87~8~0.0~0.0~984.3~393.7~98.4~0.0~15~0.0~0.0~0.0~0.0~0~0.0~0.0~0.0~0.0~0~0.0~0.0~0.0~180.0~984.0~394.0*
%ADD87D87*%
G04~CAMADD=106~8~0.0~0.0~629.9~629.9~108.3~0.0~15~0.0~0.0~0.0~0.0~0~0.0~0.0~0.0~0.0~0~0.0~0.0~0.0~180.0~630.0~630.0*
%ADD106D106*%
G04~CAMADD=107~8~0.0~0.0~669.3~669.3~128.0~0.0~15~0.0~0.0~0.0~0.0~0~0.0~0.0~0.0~0.0~0~0.0~0.0~0.0~90.0~670.0~670.0*
%ADD107D107*%
G04~CAMADD=108~8~0.0~0.0~629.9~629.9~108.3~0.0~15~0.0~0.0~0.0~0.0~0~0.0~0.0~0.0~0.0~0~0.0~0.0~0.0~90.0~630.0~630.0*
%ADD108D108*%
%ADD109C,0.062992*%
G04~CAMADD=110~8~0.0~0.0~669.3~669.3~128.0~0.0~15~0.0~0.0~0.0~0.0~0~0.0~0.0~0.0~0.0~0~0.0~0.0~0.0~0.0~669.3~669.3*
%ADD110D110*%
%ADD111O,0.066929X0.039370*%
%ADD112C,0.066929*%
%ADD113C,0.057008*%
%ADD114C,0.125984*%
%ADD115C,0.027559*%
%ADD129R,0.295275X0.236220*%
%LNsysdev3-1*%
%LPD*%
G36*
X02539Y01794D02*
X03405D01*
Y01552*
X02539*
X0187*
Y01555*
X0*
Y01791*
X0187*
Y01794*
X02539*
G37*
G36*
X0187Y-01794D02*
X0D01*
Y-01552*
X0187*
Y-01794*
G37*
G36*
X02539D02*
X0187D01*
Y-01552*
X02539*
Y-01794*
G37*
G36*
X03405D02*
X02539D01*
Y-01552*
X03405*
Y-01794*
G37*
%LNsysdev3-2*%
%LPC*%
G36*
X00425Y01727D02*
X00366D01*
Y01714*
X00388*
Y01632*
X00366*
Y01618*
X00425*
Y01632*
X00403*
Y01714*
X00425*
Y01727*
G37*
G36*
Y01714D02*
D01*
G37*
G36*
Y01713D02*
Y01713D01*
Y01713*
G37*
G36*
Y01713D02*
Y01712D01*
Y01713*
G37*
G36*
Y01712D02*
D01*
G37*
G36*
Y01712D02*
Y01711D01*
Y01712*
G37*
G36*
Y01711D02*
Y01711D01*
Y01711*
G37*
G36*
Y01711D02*
D01*
G37*
G36*
Y0171D01*
Y01711*
G37*
G36*
Y01709D02*
Y01709D01*
Y01709*
G37*
G36*
Y01709D02*
Y01709D01*
Y01709*
G37*
G36*
Y01709D02*
Y01707D01*
Y01709*
G37*
G36*
Y01707D02*
Y01707D01*
Y01707*
G37*
G36*
Y01707D02*
Y01705D01*
Y01707*
G37*
G36*
Y01705D02*
D01*
G37*
G36*
Y01704D02*
Y01704D01*
Y01704*
G37*
G36*
Y01703D02*
Y01702D01*
Y01703*
G37*
G36*
Y01702D02*
Y01702D01*
Y01702*
G37*
G36*
Y01701D02*
Y01699D01*
Y01701*
G37*
G36*
Y01699D02*
Y01699D01*
Y01699*
G37*
G36*
X00612Y01727D02*
X00597D01*
X0059Y01699*
X00558*
X00552Y01727*
X00575*
X00537*
X00565Y01618*
X00565*
X00584*
X00612Y01727*
G37*
G36*
X00425Y01699D02*
Y01699D01*
Y01699*
G37*
G36*
Y01699D02*
D01*
G37*
G36*
X00341Y01727D02*
D01*
Y01698*
X00341Y01699*
Y017*
X00341Y01702*
X0034Y01705*
X00339Y01709*
X00337Y01712*
X00336Y01714*
X00335Y01716*
X00334Y01717*
X00332Y01719*
X00332*
X00332Y01719*
X00331Y0172*
X00331Y0172*
X0033Y01721*
X00329Y01722*
X00327Y01722*
X00326Y01723*
X00323Y01725*
X00318Y01726*
X00314Y01727*
X00311Y01727*
X00308Y01727*
X00341*
X00275*
Y01618*
X00308*
X00309Y01619*
X0031*
X00311Y01619*
X00315Y01619*
X00319Y0162*
X00323Y01622*
X00326Y01623*
X0033Y01626*
X0033*
X0033Y01626*
X00331Y01627*
X00333Y01629*
X00334Y01631*
X00336Y01634*
X00337Y01638*
X00338Y01642*
X00338Y01644*
X00339Y01647*
Y01647*
Y01647*
Y01648*
X00338Y0165*
X00338Y01652*
X00337Y01654*
X00337Y01657*
X00335Y01659*
X00334Y01662*
X00334Y01662*
X00333Y01662*
X00332Y01664*
X00331Y01665*
X00329Y01666*
X00327Y01668*
X00325Y01669*
X00322Y0167*
X00322*
X00322Y0167*
X00323Y0167*
X00325Y01671*
X00327Y01672*
X00329Y01673*
X00331Y01675*
X00334Y01677*
X00336Y01679*
X00336Y0168*
X00337Y0168*
X00337Y01682*
X00339Y01684*
X00339Y01687*
X0034Y0169*
X00341Y01693*
X00341Y01697*
Y01625*
Y01727*
G37*
G36*
X00425Y01698D02*
Y01697D01*
Y01698*
G37*
G36*
Y01697D02*
Y01697D01*
Y01697*
G37*
G36*
Y01697D02*
D01*
G37*
G36*
X00127Y01729D02*
X00126D01*
X00125Y01728*
X00124*
X00122Y01728*
X00119Y01727*
X00115Y01727*
X00111Y01725*
X00107Y01723*
X00105Y01722*
X00104Y0172*
Y0172*
X00103Y0172*
X00103Y01719*
X00102Y01719*
X00102Y01718*
X00101Y01717*
X00099Y01714*
X00098Y01711*
X00096Y01707*
X00095Y01702*
X00095Y017*
X00095Y01697*
Y01617*
Y01647*
X00095Y01646*
Y01645*
X00096Y01643*
X00096Y0164*
X00097Y01636*
X00099Y01633*
X00101Y01629*
X00102Y01627*
X00104Y01625*
X00104Y01625*
X00104Y01625*
X00104Y01625*
X00105Y01624*
X00106Y01623*
X00107Y01623*
X00108Y01622*
X0011Y01621*
X00113Y0162*
X00117Y01618*
X00122Y01617*
X00124Y01617*
X00129*
X0013Y01617*
X00131*
X00132Y01617*
X00136Y01618*
X0014Y01619*
X00143Y01621*
X00147Y01623*
X00149Y01624*
X00151Y01625*
X00151Y01626*
X00151Y01626*
X00151Y01626*
X00152Y01627*
X00153Y01628*
X00153Y01629*
X00155Y01631*
X00157Y01635*
X00158Y01639*
X00159Y01643*
X00159Y01646*
X00159Y01648*
Y01699*
X00159Y01699*
Y01701*
X00159Y01702*
X00158Y01705*
X00157Y01709*
X00156Y01713*
X00154Y01717*
X00152Y01719*
X00151Y0172*
X00151*
X0015Y01721*
X0015Y01721*
X00149Y01721*
X00148Y01722*
X00147Y01723*
X00145Y01724*
X00141Y01726*
X00137Y01727*
X00132Y01728*
X0013Y01728*
X00127Y01729*
G37*
G36*
X00425Y01697D02*
Y01696D01*
Y01697*
G37*
G36*
Y01696D02*
Y01695D01*
Y01696*
G37*
G36*
Y01693D02*
Y0169D01*
Y01693*
G37*
G36*
Y01689D02*
Y01687D01*
Y01689*
G37*
G36*
Y01687D02*
D01*
G37*
G36*
Y01683D01*
Y01687*
G37*
G36*
Y01683D02*
Y01682D01*
Y01683*
G37*
G36*
Y01682D02*
Y01682D01*
Y01682*
G37*
G36*
Y01682D02*
Y0168D01*
Y01682*
G37*
G36*
Y0168D02*
D01*
G37*
G36*
Y0168D02*
Y0168D01*
Y0168*
G37*
G36*
Y0168D02*
D01*
G37*
G36*
Y0168D02*
Y01679D01*
Y0168*
G37*
G36*
Y01679D02*
Y01679D01*
Y01679*
G37*
G36*
Y01678D02*
Y01677D01*
Y01678*
G37*
G36*
Y01677D02*
D01*
G37*
G36*
Y01676D01*
Y01677*
G37*
G36*
Y01675D02*
Y01675D01*
Y01675*
G37*
G36*
Y01675D02*
Y01673D01*
Y01675*
G37*
G36*
Y01673D02*
Y01672D01*
Y01673*
G37*
G36*
Y01672D02*
Y01672D01*
Y01672*
G37*
G36*
Y01672D02*
Y0167D01*
Y01672*
G37*
G36*
Y0167D02*
D01*
G37*
G36*
Y0167D02*
Y0167D01*
Y0167*
G37*
G36*
Y0167D02*
Y01669D01*
Y0167*
G37*
G36*
Y01669D02*
D01*
G37*
G36*
Y01669D01*
Y01669*
G37*
G36*
Y01669D02*
D01*
G37*
G36*
Y01669D02*
D01*
G37*
G36*
D01*
G37*
G36*
Y01668D01*
Y01669*
G37*
G36*
Y01668D02*
D01*
G37*
G36*
Y01668D02*
Y01667D01*
Y01668*
G37*
G36*
Y01667D02*
Y01666D01*
Y01667*
G37*
G36*
Y01666D02*
Y01666D01*
Y01666*
G37*
G36*
Y01666D02*
Y01666D01*
Y01666*
G37*
G36*
Y01666D02*
Y01665D01*
Y01666*
G37*
G36*
Y01665D02*
D01*
G37*
G36*
X00881Y01727D02*
D01*
Y01664*
Y01727*
G37*
G36*
X00425Y01665D02*
Y01664D01*
Y01665*
G37*
G36*
Y01664D02*
Y01663D01*
Y01664*
G37*
G36*
Y01663D02*
Y01663D01*
Y01663*
G37*
G36*
Y01663D02*
Y01663D01*
Y01663*
G37*
G36*
Y01663D02*
D01*
G37*
G36*
Y01663D02*
D01*
G37*
G36*
Y01661D02*
D01*
G37*
G36*
Y01661D02*
Y0166D01*
Y01661*
G37*
G36*
Y0166D02*
Y01659D01*
Y0166*
G37*
G36*
Y01659D02*
Y01659D01*
Y01659*
G37*
G36*
Y01658D02*
D01*
G37*
G36*
Y01658D02*
Y01657D01*
Y01658*
G37*
G36*
Y01657D02*
Y01656D01*
Y01657*
G37*
G36*
Y01656D02*
Y01655D01*
Y01656*
G37*
G36*
Y01655D02*
Y01654D01*
Y01655*
G37*
G36*
Y01654D02*
Y01654D01*
Y01654*
G37*
G36*
Y01654D02*
Y01654D01*
Y01654*
G37*
G36*
Y01653D02*
Y01653D01*
Y01653*
G37*
G36*
Y01653D02*
Y01652D01*
Y01653*
G37*
G36*
Y01652D02*
Y01652D01*
Y01652*
G37*
G36*
Y01651D02*
D01*
G37*
G36*
D01*
G37*
G36*
Y01651D01*
Y01651*
G37*
G36*
Y01651D02*
Y01651D01*
Y01651*
G37*
G36*
Y01651D02*
Y0165D01*
Y01651*
G37*
G36*
Y0165D02*
D01*
G37*
G36*
D01*
G37*
G36*
Y0165D02*
Y0165D01*
Y0165*
G37*
G36*
Y0165D02*
D01*
G37*
G36*
Y0165D02*
Y01649D01*
Y0165*
G37*
G36*
Y01649D02*
Y01649D01*
Y01649*
G37*
G36*
Y01649D02*
Y01648D01*
Y01649*
G37*
G36*
Y01648D02*
D01*
G37*
G36*
Y01648D01*
Y01648*
G37*
G36*
Y01648D02*
Y01648D01*
Y01648*
G37*
G36*
Y01648D02*
Y01647D01*
Y01648*
G37*
G36*
Y01647D02*
D01*
G37*
G36*
Y01647D01*
Y01647*
G37*
G36*
Y01647D02*
D01*
G37*
G36*
Y01646D02*
D01*
G37*
G36*
Y01645D02*
D01*
G37*
G36*
Y01645D02*
D01*
G37*
G36*
D01*
G37*
G36*
D01*
G37*
G36*
Y01643D01*
Y01645*
G37*
G36*
Y01643D02*
Y01643D01*
Y01643*
G37*
G36*
Y01643D02*
D01*
G37*
G36*
D01*
G37*
G36*
Y01643D01*
Y01643*
G37*
G36*
Y01643D02*
Y01642D01*
Y01643*
G37*
G36*
Y01641D02*
D01*
G37*
G36*
Y01641D02*
D01*
G37*
G36*
Y01641D02*
Y01641D01*
Y01641*
G37*
G36*
Y0164D02*
D01*
G37*
G36*
Y0164D02*
Y01639D01*
Y0164*
G37*
G36*
Y01639D02*
D01*
G37*
G36*
Y01639D02*
D01*
G37*
G36*
Y01639D01*
Y01639*
G37*
G36*
Y01639D02*
D01*
G37*
G36*
Y01638D01*
Y01639*
G37*
G36*
Y01638D02*
Y01637D01*
Y01638*
G37*
G36*
Y01637D02*
D01*
G37*
G36*
Y01637D01*
Y01637*
G37*
G36*
Y01637D02*
Y01637D01*
Y01637*
G37*
G36*
Y01637D02*
D01*
G37*
G36*
Y01636D01*
Y01637*
G37*
G36*
Y01636D02*
D01*
G37*
G36*
D01*
G37*
G36*
Y01636D02*
Y01636D01*
Y01636*
G37*
G36*
Y01636D02*
D01*
G37*
G36*
Y01635D01*
Y01636*
G37*
G36*
Y01635D02*
Y01635D01*
Y01635*
G37*
G36*
Y01635D02*
D01*
G37*
G36*
D01*
G37*
G36*
Y01635D02*
D01*
G37*
G36*
D01*
G37*
G36*
Y01634D01*
Y01635*
G37*
G36*
Y01634D02*
Y01634D01*
Y01634*
G37*
G36*
Y01634D02*
D01*
G37*
G36*
Y01634D02*
D01*
G37*
G36*
Y01634D01*
Y01634*
G37*
G36*
Y01634D02*
Y01633D01*
Y01634*
G37*
G36*
Y01633D02*
D01*
G37*
G36*
Y01633D02*
D01*
G37*
G36*
Y01633D01*
Y01633*
G37*
G36*
Y01633D02*
D01*
G37*
G36*
Y01633D01*
Y01633*
G37*
G36*
Y01633D02*
Y01633D01*
Y01633*
G37*
G36*
Y01632D02*
D01*
G37*
G36*
Y01632D02*
D01*
G37*
G36*
X01235Y01727D02*
D01*
Y01632*
X01184*
Y01666*
X01231*
Y0168*
X01184*
Y01727*
X01235*
X0117*
Y01618*
X01235*
Y01727*
G37*
G36*
X00425Y01632D02*
Y01632D01*
Y01632*
G37*
G36*
X01148Y01727D02*
D01*
Y01632*
X01119*
Y01727*
X01148*
X01104*
Y01632*
X01074*
Y01618*
X01148*
Y01727*
G37*
G36*
X00522D02*
D01*
Y01632*
X00493*
Y01727*
X00522*
X00478*
Y01632*
X00448*
Y01618*
X00522*
Y01727*
G37*
G36*
X00425Y01632D02*
D01*
G37*
G36*
X0106Y01727D02*
X00984D01*
X01012Y01618*
X01032*
X0106Y01727*
Y01631*
Y01727*
G37*
G36*
X01685D02*
D01*
Y01625*
Y01727*
G37*
G36*
X00254D02*
X00185D01*
Y01618*
X0022*
X00223Y01619*
X00225Y01619*
X00228Y01619*
X00231Y0162*
X00233Y01621*
X00236Y01622*
X00237Y01623*
X00238Y01623*
X00239Y01624*
X00241Y01625*
X00243Y01627*
X00244Y01629*
X00246Y01631*
X00248Y01633*
X00248Y01634*
X00249Y01635*
X00249Y01636*
X0025Y01638*
X00251Y01641*
X00251Y01643*
X00252Y01647*
X00252Y0165*
Y0165*
Y01651*
Y01651*
Y01652*
X00252Y01654*
X00251Y01656*
X00251Y0166*
X0025Y01663*
X00248Y01666*
X00246Y01669*
X00246Y01669*
X00245Y0167*
X00244Y01672*
X00242Y01673*
X0024Y01675*
X00238Y01677*
X00235Y01679*
X00231Y0168*
X00254Y01727*
Y01623*
Y01727*
G37*
G36*
X01774D02*
X01706D01*
X01706*
Y01714*
X01735*
Y01631*
X01706Y01653*
Y01653*
Y01637*
X01731Y01618*
X0175*
Y01714*
X01774*
Y01621*
Y01727*
G37*
G36*
X00612D02*
D01*
Y0162*
Y01727*
G37*
G36*
X01417D02*
D01*
Y0162*
Y01727*
G37*
G36*
X01685D02*
X01616D01*
Y01618*
X01652*
X01654Y01619*
X01656Y01619*
X01659Y01619*
X01662Y0162*
X01665Y01621*
X01668Y01622*
X01668Y01623*
X01669Y01623*
X0167Y01624*
X01672Y01625*
X01674Y01627*
X01676Y01629*
X01678Y01631*
X01679Y01633*
X0168Y01634*
X0168Y01635*
X01681Y01636*
X01682Y01638*
X01682Y01641*
X01683Y01643*
X01683Y01647*
X01684Y0165*
Y0165*
Y01651*
Y01651*
Y01652*
X01683Y01654*
X01683Y01656*
X01682Y0166*
X01681Y01663*
X0168Y01666*
X01678Y01669*
X01678Y01669*
X01677Y0167*
X01675Y01672*
X01674Y01673*
X01672Y01675*
X01669Y01677*
X01666Y01679*
X01662Y0168*
X01685Y01727*
G37*
G36*
X01503D02*
X01435D01*
Y01618*
X01469*
X01454*
X01465Y01654*
Y01654*
X01465Y01654*
X01466Y01655*
X01466Y01657*
X01466Y01658*
X01467Y0166*
X01468Y01663*
Y01663*
X01468Y01664*
X01468Y01664*
X01468Y01666*
X01469Y01668*
X01469Y0167*
Y0167*
Y01669*
X0147Y01669*
X0147Y01668*
X0147Y01667*
X0147Y01666*
X01471Y01664*
X01471Y01663*
Y01663*
X01471Y01662*
X01471Y01661*
X01472Y0166*
X01472Y01659*
X01472Y01657*
X01473Y01653*
X01484Y01618*
X01503*
Y01727*
G37*
G36*
X01417D02*
X01348D01*
Y01618*
X01383*
X01385Y01619*
X01388Y01619*
X01391Y01619*
X01394Y0162*
X01396Y01621*
X01399Y01622*
X014Y01623*
X01401Y01623*
X01402Y01624*
X01404Y01625*
X01406Y01627*
X01407Y01629*
X01409Y01631*
X01411Y01633*
X01411Y01634*
X01412Y01635*
X01412Y01636*
X01413Y01638*
X01414Y01641*
X01414Y01643*
X01415Y01647*
X01415Y0165*
Y0165*
Y01651*
Y01651*
Y01652*
X01415Y01654*
X01414Y01656*
X01414Y0166*
X01413Y01663*
X01411Y01666*
X01409Y01669*
X01409Y01669*
X01408Y0167*
X01407Y01672*
X01405Y01673*
X01403Y01675*
X01401Y01677*
X01398Y01679*
X01394Y0168*
X01417Y01727*
G37*
G36*
X0097D02*
X00907D01*
Y01618*
X0097*
Y01727*
G37*
G36*
X00881D02*
X00811D01*
Y01618*
X00848*
X0085Y01619*
X00853Y01619*
X00856Y01619*
X00859Y0162*
X00862Y01621*
X00865Y01623*
X00865Y01623*
X00866Y01623*
X00867Y01624*
X00869Y01625*
X00871Y01627*
X00873Y01629*
X00875Y01631*
X00876Y01634*
X00877Y01634*
X00877Y01635*
X00878Y01637*
X00879Y01639*
X00879Y01641*
X0088Y01644*
X0088Y01647*
X00881Y01651*
Y01653*
X0088Y01654*
X0088Y01657*
X0088Y0166*
X00879Y01662*
X00878Y01665*
X00876Y01668*
X00876Y01668*
X00876Y01669*
X00875Y0167*
X00873Y01672*
X00872Y01674*
X0087Y01676*
X00867Y01678*
X00865Y01679*
X00864Y01679*
X00863Y0168*
X00862Y0168*
X00859Y01681*
X00857Y01682*
X00854Y01683*
X0085Y01683*
X00847Y01683*
X00826*
Y01727*
X00881*
G37*
G36*
X00702D02*
X00638D01*
Y01618*
X00702*
Y01727*
G37*
G36*
X01322Y01729D02*
X01258D01*
X01289*
X01288Y01728*
X01287*
X01285Y01728*
X01282Y01727*
X01278Y01727*
X01274Y01725*
X0127Y01723*
X01268Y01722*
X01267Y0172*
Y0172*
X01266Y0172*
X01266Y01719*
X01265Y01719*
X01265Y01718*
X01264Y01717*
X01262Y01714*
X01261Y01711*
X01259Y01707*
X01258Y01702*
X01258Y017*
X01258Y01697*
Y01647*
X01258Y01646*
Y01645*
X01258Y01643*
X01259Y0164*
X0126Y01636*
X01262Y01633*
X01264Y01629*
X01265Y01627*
X01267Y01625*
X01267Y01625*
X01267Y01625*
X01267Y01625*
X01268Y01624*
X01269Y01623*
X0127Y01623*
X01271Y01622*
X01273Y01621*
X01276Y0162*
X0128Y01618*
X01285Y01617*
X01287Y01617*
X01292*
X01293Y01617*
X01294*
X01295Y01617*
X01299Y01618*
X01303Y01619*
X01306Y01621*
X0131Y01623*
X01312Y01624*
X01314Y01625*
X01314Y01626*
X01314Y01626*
X01314Y01626*
X01315Y01627*
X01316Y01628*
X01316Y01629*
X01318Y01631*
X0132Y01635*
X01321Y01639*
X01322Y01643*
X01322Y01646*
X01322Y01648*
Y01617*
Y01699*
X01322Y01699*
Y01701*
X01322Y01702*
X01321Y01705*
X0132Y01709*
X01319Y01713*
X01317Y01717*
X01315Y01719*
X01314Y0172*
X01314*
X01313Y01721*
X01313Y01721*
X01312Y01721*
X01311Y01722*
X0131Y01723*
X01308Y01724*
X01304Y01726*
X013Y01727*
X01295Y01728*
X01293Y01728*
X0129Y01729*
X01322*
G37*
%LNsysdev3-3*%
%LPD*%
G36*
X0058Y01654D02*
Y01654D01*
X0058Y01654*
X00579Y01653*
X00579Y01651*
X00579Y01649*
X00578Y01647*
X00577Y01644*
X00577Y01641*
X00576Y01639*
Y01639*
X00576Y01638*
X00576Y01637*
X00575Y01636*
X00575Y01633*
X00575Y01631*
X00575Y01631*
Y01631*
Y01631*
X00574Y01632*
X00574Y01632*
X00574Y01634*
X00574Y01635*
X00573Y01637*
X00573Y01639*
Y01639*
X00573Y0164*
X00572Y01641*
X00572Y01643*
X00571Y01645*
X00571Y01648*
X0057Y01651*
X00569Y01654*
X00562Y01687*
X00587*
X0058Y01654*
G37*
G36*
X0031Y01714D02*
X00312Y01714D01*
X00314Y01713*
X00317Y01712*
X00319Y01711*
X00321Y01709*
X00321Y01709*
X00322Y01709*
X00323Y01707*
X00324Y01706*
X00325Y01704*
X00326Y01702*
X00326Y01699*
X00326Y01696*
Y01696*
Y01696*
Y01695*
X00326Y01693*
X00326Y01691*
X00325Y01689*
X00324Y01687*
X00323Y01684*
X00321Y01682*
X00321Y01682*
X0032Y01681*
X00319Y0168*
X00317Y0168*
X00315Y01678*
X00313Y01678*
X0031Y01677*
X00307Y01677*
X00289*
Y01714*
X00308*
X0031Y01714*
G37*
G36*
X00309Y01664D02*
X00311Y01664D01*
X00313Y01663*
X00315Y01662*
X00317Y01661*
X00319Y0166*
X00319Y0166*
X0032Y01659*
X00321Y01658*
X00321Y01657*
X00322Y01655*
X00323Y01653*
X00324Y01651*
X00324Y01648*
Y01647*
Y01647*
X00324Y01645*
X00323Y01643*
X00323Y01641*
X00322Y01639*
X00321Y01638*
X00319Y01636*
X00319Y01636*
X00318Y01635*
X00317Y01634*
X00316Y01634*
X00314Y01633*
X00312Y01632*
X00309Y01632*
X00306Y01631*
X00289*
Y01664*
X00307*
X00309Y01664*
G37*
G36*
X0013Y01715D02*
X00132Y01715D01*
X00134Y01715*
X00136Y01714*
X00138Y01713*
X0014Y01711*
X0014Y01711*
X00141Y0171*
X00142Y01709*
X00143Y01707*
X00143Y01705*
X00144Y01703*
X00145Y017*
X00145Y01697*
Y01648*
Y01648*
Y01648*
Y01647*
X00145Y01645*
X00144Y01643*
X00144Y01641*
X00143Y01639*
X00142Y01637*
X0014Y01635*
X0014Y01635*
X00139Y01634*
X00138Y01633*
X00137Y01632*
X00135Y01632*
X00133Y01631*
X0013Y0163*
X00127Y0163*
X00126*
X00124Y0163*
X00122Y01631*
X0012Y01631*
X00118Y01632*
X00116Y01633*
X00114Y01635*
X00114Y01635*
X00113Y01636*
X00113Y01637*
X00112Y01638*
X00111Y0164*
X0011Y01643*
X0011Y01645*
X0011Y01648*
Y01697*
Y01697*
Y01697*
Y01699*
X0011Y017*
X0011Y01702*
X00111Y01704*
X00112Y01707*
X00113Y01709*
X00114Y01711*
X00114Y01711*
X00115Y01712*
X00116Y01712*
X00118Y01713*
X00119Y01714*
X00122Y01715*
X00124Y01715*
X00127Y01716*
X00129*
X0013Y01715*
G37*
G36*
X01038Y01699D02*
X01006D01*
X00999Y01727*
X01045*
X01038Y01699*
G37*
G36*
X01027Y01654D02*
Y01654D01*
X01027Y01654*
X01027Y01653*
X01026Y01651*
X01026Y01649*
X01025Y01647*
X01025Y01644*
X01024Y01641*
X01023Y01639*
Y01639*
X01023Y01638*
X01023Y01637*
X01023Y01636*
X01022Y01633*
X01022Y01631*
X01022Y01631*
Y01631*
Y01631*
X01022Y01632*
X01021Y01632*
X01021Y01634*
X01021Y01635*
X01021Y01637*
X0102Y01639*
Y01639*
X0102Y0164*
X0102Y01641*
X01019Y01643*
X01019Y01645*
X01018Y01648*
X01017Y01651*
X01017Y01654*
X01009Y01687*
X01035*
X01027Y01654*
G37*
G36*
X00216Y01682D02*
X002D01*
Y01727*
X00237*
X00216Y01682*
G37*
G36*
X00222Y01668D02*
X00224Y01668D01*
X00226Y01667*
X00228Y01666*
X0023Y01665*
X00232Y01664*
X00232Y01663*
X00233Y01663*
X00234Y01662*
X00235Y0166*
X00235Y01658*
X00236Y01656*
X00237Y01653*
X00237Y0165*
Y0165*
Y0165*
Y01649*
X00237Y01647*
X00236Y01645*
X00236Y01643*
X00235Y01641*
X00234Y01639*
X00232Y01637*
X00232Y01636*
X00231Y01636*
X0023Y01635*
X00229Y01634*
X00227Y01633*
X00224Y01632*
X00222Y01632*
X00219Y01631*
X002*
Y01669*
X0022*
X00222Y01668*
G37*
G36*
X01647Y01682D02*
X01631D01*
Y01727*
X01668*
X01647Y01682*
G37*
G36*
X01653Y01668D02*
X01655Y01668D01*
X01657Y01667*
X01659Y01666*
X01661Y01665*
X01663Y01664*
X01664Y01663*
X01664Y01663*
X01665Y01662*
X01666Y0166*
X01667Y01658*
X01668Y01656*
X01668Y01653*
X01668Y0165*
Y0165*
Y0165*
Y01649*
X01668Y01647*
X01668Y01645*
X01667Y01643*
X01666Y01641*
X01665Y01639*
X01663Y01637*
X01663Y01636*
X01662Y01636*
X01661Y01635*
X0166Y01634*
X01658Y01633*
X01656Y01632*
X01653Y01632*
X0165Y01631*
X01631*
Y01669*
X01652*
X01653Y01668*
G37*
G36*
X01489Y01677D02*
Y01677D01*
Y01677*
Y01676*
Y01675*
Y01674*
Y01672*
X01489Y01671*
Y01669*
Y01665*
X0149Y0166*
X0149Y01656*
X0149Y01651*
Y01651*
Y0165*
X0149Y0165*
Y01649*
X01491Y01647*
Y01646*
X01491Y01643*
X01491Y01639*
X01492Y01635*
X01492Y01631*
X01493Y01626*
X01476Y0168*
X01462*
X01445Y01627*
Y01627*
Y01627*
X01445Y01628*
Y01628*
X01445Y01629*
X01446Y01631*
X01446Y01633*
X01446Y01637*
X01447Y01641*
X01447Y01645*
X01448Y0165*
Y0165*
Y0165*
X01448Y01651*
Y01652*
X01448Y01653*
Y01655*
X01448Y01656*
X01449Y01658*
X01449Y01662*
X01449Y01667*
X01449Y01672*
Y01677*
Y01727*
X01489*
Y01677*
G37*
G36*
X01379Y01682D02*
X01363D01*
Y01727*
X014*
X01379Y01682*
G37*
G36*
X01385Y01668D02*
X01387Y01668D01*
X01389Y01667*
X01391Y01666*
X01393Y01665*
X01395Y01664*
X01395Y01663*
X01396Y01663*
X01397Y01662*
X01398Y0166*
X01398Y01658*
X01399Y01656*
X014Y01653*
X014Y0165*
Y0165*
Y0165*
Y01649*
X014Y01647*
X01399Y01645*
X01399Y01643*
X01398Y01641*
X01397Y01639*
X01395Y01637*
X01395Y01636*
X01394Y01636*
X01393Y01635*
X01391Y01634*
X0139Y01633*
X01387Y01632*
X01385Y01632*
X01382Y01631*
X01363*
Y01669*
X01383*
X01385Y01668*
G37*
G36*
X0097Y01618D02*
X00921D01*
Y01714*
X0097*
Y01618*
G37*
G36*
X0085Y0167D02*
X00851Y01669D01*
X00854Y01669*
X00856Y01668*
X00858Y01667*
X0086Y01665*
X0086Y01665*
X00861Y01664*
X00862Y01663*
X00863Y01661*
X00864Y01659*
X00865Y01657*
X00865Y01654*
X00865Y01651*
Y01651*
Y01651*
Y0165*
X00865Y01648*
X00865Y01646*
X00864Y01643*
X00863Y01641*
X00862Y01639*
X0086Y01637*
X0086Y01637*
X00859Y01636*
X00858Y01635*
X00857Y01634*
X00855Y01633*
X00852Y01632*
X0085Y01632*
X00847Y01631*
X00826*
Y0167*
X00848*
X0085Y0167*
G37*
G36*
X00702Y01618D02*
X00653D01*
Y01714*
X00702*
Y01618*
G37*
G36*
X01293Y01715D02*
X01295Y01715D01*
X01297Y01715*
X01299Y01714*
X01301Y01713*
X01303Y01711*
X01303Y01711*
X01304Y0171*
X01305Y01709*
X01306Y01707*
X01306Y01705*
X01307Y01703*
X01308Y017*
X01308Y01697*
Y01648*
Y01648*
Y01648*
Y01647*
X01308Y01645*
X01307Y01643*
X01307Y01641*
X01306Y01639*
X01305Y01637*
X01303Y01635*
X01303Y01635*
X01302Y01634*
X01301Y01633*
X013Y01632*
X01298Y01632*
X01296Y01631*
X01293Y0163*
X0129Y0163*
X01289*
X01287Y0163*
X01285Y01631*
X01283Y01631*
X01281Y01632*
X01279Y01633*
X01277Y01635*
X01277Y01635*
X01276Y01636*
X01276Y01637*
X01275Y01638*
X01274Y0164*
X01273Y01643*
X01273Y01645*
X01273Y01648*
Y01697*
Y01697*
Y01697*
Y01699*
X01273Y017*
X01273Y01702*
X01274Y01704*
X01275Y01707*
X01276Y01709*
X01277Y01711*
X01277Y01711*
X01278Y01712*
X01279Y01712*
X01281Y01713*
X01282Y01714*
X01285Y01715*
X01287Y01715*
X0129Y01716*
X01292*
X01293Y01715*
G37*
%LNsysdev3-4*%
%LPC*%
G36*
X00139Y-01618D02*
X00119D01*
Y-01714*
X00095*
Y-01727*
X00163*
Y-01714*
X00134*
Y-01631*
X00163Y-01653*
Y-01637*
X00139Y-01618*
G37*
G36*
X00434D02*
X00415D01*
X00404Y-01654*
Y-01654*
X00404Y-01654*
X00403Y-01655*
X00403Y-01657*
X00403Y-01658*
X00402Y-0166*
X00401Y-01663*
Y-01663*
X00401Y-01664*
X00401Y-01664*
X00401Y-01666*
X004Y-01668*
X004Y-0167*
Y-0167*
Y-01669*
X00399Y-01669*
X00399Y-01668*
X00399Y-01667*
X00399Y-01666*
X00399Y-01664*
X00398Y-01663*
Y-01663*
X00398Y-01662*
X00398Y-01661*
X00397Y-0166*
X00397Y-01659*
X00397Y-01657*
X00396Y-01653*
X00385Y-01618*
X00366*
Y-01727*
X0038*
Y-01677*
Y-01677*
Y-01677*
Y-01676*
Y-01675*
Y-01674*
Y-01672*
X0038Y-01671*
Y-01669*
Y-01665*
X00379Y-0166*
X00379Y-01656*
X00379Y-01651*
Y-01651*
Y-0165*
X00379Y-0165*
Y-01649*
X00378Y-01647*
Y-01646*
X00378Y-01643*
X00378Y-01639*
X00377Y-01635*
X00377Y-01631*
X00376Y-01626*
X00393Y-0168*
X00407*
X00424Y-01627*
Y-01627*
Y-01627*
X00424Y-01628*
Y-01628*
X00424Y-01629*
X00423Y-01631*
X00423Y-01633*
X00423Y-01637*
X00422Y-01641*
X00422Y-01645*
X00421Y-0165*
Y-0165*
Y-0165*
X00421Y-01651*
Y-01652*
X00421Y-01653*
Y-01655*
X00421Y-01656*
X00421Y-01658*
X0042Y-01662*
X0042Y-01667*
X0042Y-01672*
Y-01677*
Y-01727*
X00434*
Y-01618*
G37*
G36*
X01684D02*
X01649D01*
X01647Y-01619*
X01644Y-01619*
X01641Y-01619*
X01639Y-0162*
X01636Y-01621*
X01633Y-01622*
X01632Y-01623*
X01631Y-01623*
X0163Y-01624*
X01629Y-01625*
X01627Y-01627*
X01625Y-01629*
X01623Y-01631*
X01621Y-01633*
X01621Y-01634*
X0162Y-01635*
X0162Y-01636*
X01619Y-01638*
X01618Y-01641*
X01618Y-01643*
X01617Y-01647*
X01617Y-0165*
Y-0165*
Y-01651*
Y-01651*
Y-01652*
X01617Y-01654*
X01618Y-01656*
X01618Y-0166*
X01619Y-01663*
X01621Y-01666*
X01623Y-01669*
X01623Y-01669*
X01624Y-0167*
X01625Y-01672*
X01627Y-01673*
X01629Y-01675*
X01631Y-01677*
X01635Y-01679*
X01638Y-0168*
X01615Y-01727*
X01633*
X01653Y-01682*
X01669*
Y-01727*
X01684*
Y-01618*
G37*
G36*
X01594D02*
X01561D01*
X0156Y-01619*
X01559*
X01558Y-01619*
X01554Y-01619*
X01551Y-0162*
X01547Y-01622*
X01543Y-01623*
X01539Y-01626*
X01539*
X01539Y-01626*
X01538Y-01627*
X01537Y-01629*
X01535Y-01631*
X01533Y-01634*
X01532Y-01638*
X01531Y-01642*
X01531Y-01644*
X01531Y-01647*
Y-01647*
Y-01647*
Y-01648*
X01531Y-0165*
X01531Y-01652*
X01532Y-01654*
X01533Y-01657*
X01534Y-01659*
X01535Y-01662*
X01535Y-01662*
X01536Y-01662*
X01537Y-01664*
X01538Y-01665*
X0154Y-01666*
X01542Y-01668*
X01544Y-01669*
X01547Y-0167*
X01547*
X01547Y-0167*
X01546Y-0167*
X01544Y-01671*
X01542Y-01672*
X0154Y-01673*
X01538Y-01675*
X01535Y-01677*
X01533Y-01679*
X01533Y-0168*
X01532Y-0168*
X01532Y-01682*
X01531Y-01684*
X0153Y-01687*
X01529Y-0169*
X01528Y-01693*
X01528Y-01697*
Y-01698*
X01528Y-01699*
Y-017*
X01529Y-01702*
X01529Y-01705*
X0153Y-01709*
X01532Y-01712*
X01533Y-01714*
X01534Y-01716*
X01535Y-01717*
X01537Y-01719*
X01537*
X01537Y-01719*
X01538Y-0172*
X01539Y-0172*
X01539Y-01721*
X01541Y-01722*
X01542Y-01722*
X01543Y-01723*
X01547Y-01725*
X01551Y-01726*
X01555Y-01727*
X01558Y-01727*
X01561Y-01727*
X01594*
Y-01618*
G37*
G36*
X01503D02*
X01444D01*
Y-01632*
X01466*
Y-01714*
X01444*
Y-01727*
X01503*
Y-01714*
X01481*
Y-01632*
X01503*
Y-01618*
G37*
G36*
X01421D02*
X01347D01*
Y-01632*
X01377*
Y-01727*
X01391*
Y-01632*
X01421*
Y-01618*
G37*
G36*
X01304D02*
X01285D01*
X01257Y-01727*
X01272*
X01279Y-01699*
X01311*
X01317Y-01727*
X01332*
X01304Y-01618*
G37*
G36*
X01231D02*
X01216D01*
Y-01714*
X01168*
Y-01727*
X01231*
Y-01618*
G37*
G36*
X01058D02*
X01021D01*
X01019Y-01619*
X01016Y-01619*
X01013Y-01619*
X01011Y-0162*
X01007Y-01621*
X01005Y-01623*
X01004Y-01623*
X01003Y-01623*
X01002Y-01624*
X01Y-01625*
X00998Y-01627*
X00996Y-01629*
X00994Y-01631*
X00993Y-01634*
X00992Y-01634*
X00992Y-01635*
X00991Y-01637*
X0099Y-01639*
X0099Y-01641*
X00989Y-01644*
X00989Y-01647*
X00988Y-01651*
Y-01653*
X00989Y-01654*
X00989Y-01657*
X0099Y-0166*
X0099Y-01662*
X00991Y-01665*
X00993Y-01668*
X00993Y-01668*
X00993Y-01669*
X00994Y-0167*
X00996Y-01672*
X00997Y-01674*
X00999Y-01676*
X01002Y-01678*
X01005Y-01679*
X01005Y-01679*
X01006Y-0168*
X01007Y-0168*
X0101Y-01681*
X01012Y-01682*
X01015Y-01683*
X01019Y-01683*
X01023Y-01683*
X01043*
Y-01727*
X01058*
Y-01618*
G37*
G36*
X00962D02*
X00948D01*
Y-01714*
X00899*
Y-01727*
X00962*
Y-01618*
G37*
G36*
X00857D02*
X00837D01*
X00809Y-01727*
X00824*
X00831Y-01699*
X00863*
X0087Y-01727*
X00885*
X00857Y-01618*
G37*
G36*
X00795D02*
X00721D01*
Y-01632*
X0075*
Y-01727*
X00765*
Y-01632*
X00795*
Y-01618*
G37*
G36*
X007D02*
X00634D01*
Y-01632*
X00685*
Y-01666*
X00638*
Y-0168*
X00685*
Y-01727*
X007*
Y-01618*
G37*
G36*
X00521D02*
X00486D01*
X00484Y-01619*
X00481Y-01619*
X00478Y-01619*
X00476Y-0162*
X00473Y-01621*
X0047Y-01622*
X00469Y-01623*
X00468Y-01623*
X00467Y-01624*
X00466Y-01625*
X00464Y-01627*
X00462Y-01629*
X0046Y-01631*
X00458Y-01633*
X00458Y-01634*
X00457Y-01635*
X00457Y-01636*
X00456Y-01638*
X00455Y-01641*
X00455Y-01643*
X00454Y-01647*
X00454Y-0165*
Y-0165*
Y-01651*
Y-01651*
Y-01652*
X00454Y-01654*
X00455Y-01656*
X00455Y-0166*
X00456Y-01663*
X00458Y-01666*
X0046Y-01669*
X0046Y-01669*
X00461Y-0167*
X00462Y-01672*
X00464Y-01673*
X00466Y-01675*
X00468Y-01677*
X00472Y-01679*
X00475Y-0168*
X00452Y-01727*
X0047*
X0049Y-01682*
X00506*
Y-01727*
X00521*
Y-01618*
G37*
G36*
X00253D02*
X00217D01*
X00215Y-01619*
X00213Y-01619*
X0021Y-01619*
X00207Y-0162*
X00204Y-01621*
X00201Y-01622*
X00201Y-01623*
X002Y-01623*
X00199Y-01624*
X00197Y-01625*
X00195Y-01627*
X00193Y-01629*
X00191Y-01631*
X0019Y-01633*
X0019Y-01634*
X00189Y-01635*
X00188Y-01636*
X00188Y-01638*
X00187Y-01641*
X00186Y-01643*
X00186Y-01647*
X00186Y-0165*
Y-0165*
Y-01651*
Y-01651*
Y-01652*
X00186Y-01654*
X00186Y-01656*
X00187Y-0166*
X00188Y-01663*
X00189Y-01666*
X00191Y-01669*
X00192Y-01669*
X00192Y-0167*
X00194Y-01672*
X00195Y-01673*
X00198Y-01675*
X002Y-01677*
X00203Y-01679*
X00207Y-0168*
X00184Y-01727*
X00201*
X00222Y-01682*
X00238*
Y-01727*
X00253*
Y-01618*
G37*
G36*
X01745Y-01617D02*
X0174D01*
X01739Y-01617*
X01738*
X01737Y-01617*
X01733Y-01618*
X01729Y-01619*
X01726Y-01621*
X01722Y-01623*
X0172Y-01624*
X01718Y-01625*
X01718Y-01626*
X01718Y-01626*
X01718Y-01626*
X01717Y-01627*
X01716Y-01628*
X01716Y-01629*
X01714Y-01631*
X01712Y-01635*
X01711Y-01639*
X0171Y-01643*
X0171Y-01646*
X0171Y-01648*
Y-01699*
X0171Y-01699*
Y-01701*
X0171Y-01702*
X01711Y-01705*
X01712Y-01709*
X01713Y-01713*
X01715Y-01717*
X01717Y-01719*
X01718Y-0172*
X01719*
X01719Y-01721*
X01719Y-01721*
X0172Y-01721*
X01721Y-01722*
X01722Y-01723*
X01725Y-01724*
X01728Y-01726*
X01732Y-01727*
X01737Y-01728*
X01739Y-01728*
X01742Y-01729*
X01743*
X01744Y-01728*
X01746*
X01747Y-01728*
X0175Y-01727*
X01754Y-01727*
X01758Y-01725*
X01762Y-01723*
X01764Y-01722*
X01766Y-0172*
Y-0172*
X01766Y-0172*
X01766Y-01719*
X01767Y-01719*
X01768Y-01718*
X01768Y-01717*
X0177Y-01714*
X01771Y-01711*
X01773Y-01707*
X01774Y-01702*
X01774Y-017*
X01774Y-01697*
Y-01647*
X01774Y-01646*
Y-01645*
X01774Y-01643*
X01773Y-0164*
X01772Y-01636*
X0177Y-01633*
X01768Y-01629*
X01767Y-01627*
X01766Y-01625*
X01765Y-01625*
X01765Y-01625*
X01765Y-01625*
X01764Y-01624*
X01763Y-01623*
X01762Y-01623*
X01761Y-01622*
X01759Y-01621*
X01756Y-0162*
X01752Y-01618*
X01747Y-01617*
X01745Y-01617*
G37*
G36*
X00582D02*
X00577D01*
X00576Y-01617*
X00575*
X00574Y-01617*
X0057Y-01618*
X00566Y-01619*
X00563Y-01621*
X00559Y-01623*
X00557Y-01624*
X00555Y-01625*
X00555Y-01626*
X00555Y-01626*
X00555Y-01626*
X00554Y-01627*
X00553Y-01628*
X00553Y-01629*
X00551Y-01631*
X00549Y-01635*
X00548Y-01639*
X00547Y-01643*
X00547Y-01646*
X00547Y-01648*
Y-01699*
X00547Y-01699*
Y-01701*
X00547Y-01702*
X00548Y-01705*
X00549Y-01709*
X0055Y-01713*
X00552Y-01717*
X00554Y-01719*
X00555Y-0172*
X00556*
X00556Y-01721*
X00556Y-01721*
X00557Y-01721*
X00558Y-01722*
X00559Y-01723*
X00562Y-01724*
X00565Y-01726*
X00569Y-01727*
X00574Y-01728*
X00576Y-01728*
X00579Y-01729*
X0058*
X00581Y-01728*
X00583*
X00584Y-01728*
X00587Y-01727*
X00591Y-01727*
X00595Y-01725*
X00599Y-01723*
X00601Y-01722*
X00603Y-0172*
Y-0172*
X00603Y-0172*
X00603Y-01719*
X00604Y-01719*
X00605Y-01718*
X00605Y-01717*
X00607Y-01714*
X00608Y-01711*
X0061Y-01707*
X00611Y-01702*
X00611Y-017*
X00611Y-01697*
Y-01647*
X00611Y-01646*
Y-01645*
X00611Y-01643*
X0061Y-0164*
X00609Y-01636*
X00607Y-01633*
X00605Y-01629*
X00604Y-01627*
X00603Y-01625*
X00602Y-01625*
X00602Y-01625*
X00602Y-01625*
X00601Y-01624*
X006Y-01623*
X00599Y-01623*
X00598Y-01622*
X00596Y-01621*
X00593Y-0162*
X00589Y-01618*
X00584Y-01617*
X00582Y-01617*
G37*
%LNsysdev3-5*%
%LPD*%
G36*
X01669Y-01669D02*
X01649D01*
X01647Y-01668*
X01645Y-01668*
X01643Y-01667*
X01641Y-01666*
X01639Y-01665*
X01637Y-01664*
X01637Y-01663*
X01636Y-01663*
X01635Y-01662*
X01635Y-0166*
X01634Y-01658*
X01633Y-01656*
X01632Y-01653*
X01632Y-0165*
Y-0165*
Y-0165*
Y-01649*
X01632Y-01647*
X01633Y-01645*
X01633Y-01643*
X01634Y-01641*
X01635Y-01639*
X01637Y-01637*
X01637Y-01636*
X01638Y-01636*
X01639Y-01635*
X01641Y-01634*
X01642Y-01633*
X01645Y-01632*
X01647Y-01632*
X0165Y-01631*
X01669*
Y-01669*
G37*
G36*
X0158Y-01664D02*
X01562D01*
X0156Y-01664*
X01558Y-01664*
X01556Y-01663*
X01554Y-01662*
X01552Y-01661*
X0155Y-0166*
X0155Y-0166*
X01549Y-01659*
X01549Y-01658*
X01548Y-01657*
X01547Y-01655*
X01546Y-01653*
X01545Y-01651*
X01545Y-01648*
Y-01647*
Y-01647*
X01545Y-01645*
X01546Y-01643*
X01546Y-01641*
X01547Y-01639*
X01548Y-01638*
X0155Y-01636*
X0155Y-01636*
X01551Y-01635*
X01552Y-01634*
X01553Y-01634*
X01555Y-01633*
X01557Y-01632*
X0156Y-01632*
X01563Y-01631*
X0158*
Y-01664*
G37*
G36*
Y-01714D02*
X01561D01*
X01559Y-01714*
X01557Y-01714*
X01555Y-01713*
X01552Y-01712*
X0155Y-01711*
X01548Y-01709*
X01548Y-01709*
X01547Y-01709*
X01546Y-01707*
X01545Y-01706*
X01544Y-01704*
X01543Y-01702*
X01543Y-01699*
X01543Y-01696*
Y-01696*
Y-01696*
Y-01695*
X01543Y-01693*
X01543Y-01691*
X01544Y-01689*
X01545Y-01687*
X01546Y-01684*
X01548Y-01682*
X01548Y-01682*
X01549Y-01681*
X0155Y-0168*
X01552Y-0168*
X01554Y-01678*
X01556Y-01678*
X01559Y-01677*
X01562Y-01677*
X0158*
Y-01714*
G37*
G36*
X01295Y-01631D02*
Y-01631D01*
X01295Y-01632*
X01295Y-01632*
X01295Y-01634*
X01295Y-01635*
X01296Y-01637*
X01296Y-01639*
Y-01639*
X01296Y-0164*
X01297Y-01641*
X01297Y-01643*
X01298Y-01645*
X01298Y-01648*
X01299Y-01651*
X013Y-01654*
X01308Y-01687*
X01282*
X01289Y-01654*
Y-01654*
X01289Y-01654*
X0129Y-01653*
X0129Y-01651*
X01291Y-01649*
X01291Y-01647*
X01292Y-01644*
X01292Y-01641*
X01293Y-01639*
Y-01639*
X01293Y-01638*
X01293Y-01637*
X01294Y-01636*
X01294Y-01633*
X01294Y-01631*
X01295Y-01631*
Y-01631*
G37*
G36*
X01043Y-0167D02*
X01021D01*
X01019Y-0167*
X01018Y-01669*
X01015Y-01669*
X01013Y-01668*
X01011Y-01667*
X01009Y-01665*
X01009Y-01665*
X01008Y-01664*
X01007Y-01663*
X01006Y-01661*
X01005Y-01659*
X01005Y-01657*
X01004Y-01654*
X01004Y-01651*
Y-01651*
Y-01651*
Y-0165*
X01004Y-01648*
X01004Y-01646*
X01005Y-01643*
X01006Y-01641*
X01007Y-01639*
X01009Y-01637*
X01009Y-01637*
X0101Y-01636*
X01011Y-01635*
X01012Y-01634*
X01014Y-01633*
X01017Y-01632*
X01019Y-01632*
X01023Y-01631*
X01043*
Y-0167*
G37*
G36*
X00847Y-01631D02*
Y-01631D01*
X00847Y-01632*
X00848Y-01632*
X00848Y-01634*
X00848Y-01635*
X00849Y-01637*
X00849Y-01639*
Y-01639*
X00849Y-0164*
X00849Y-01641*
X0085Y-01643*
X0085Y-01645*
X00851Y-01648*
X00852Y-01651*
X00852Y-01654*
X0086Y-01687*
X00834*
X00842Y-01654*
Y-01654*
X00842Y-01654*
X00842Y-01653*
X00843Y-01651*
X00843Y-01649*
X00844Y-01647*
X00845Y-01644*
X00845Y-01641*
X00846Y-01639*
Y-01639*
X00846Y-01638*
X00846Y-01637*
X00846Y-01636*
X00847Y-01633*
X00847Y-01631*
X00847Y-01631*
Y-01631*
G37*
G36*
X00506Y-01669D02*
X00486D01*
X00484Y-01668*
X00483Y-01668*
X0048Y-01667*
X00478Y-01666*
X00476Y-01665*
X00474Y-01664*
X00474Y-01663*
X00473Y-01663*
X00472Y-01662*
X00472Y-0166*
X00471Y-01658*
X0047Y-01656*
X00469Y-01653*
X00469Y-0165*
Y-0165*
Y-0165*
Y-01649*
X00469Y-01647*
X0047Y-01645*
X0047Y-01643*
X00471Y-01641*
X00472Y-01639*
X00474Y-01637*
X00474Y-01636*
X00475Y-01636*
X00476Y-01635*
X00478Y-01634*
X00479Y-01633*
X00482Y-01632*
X00484Y-01632*
X00487Y-01631*
X00506*
Y-01669*
G37*
G36*
X00238D02*
X00217D01*
X00216Y-01668*
X00214Y-01668*
X00212Y-01667*
X0021Y-01666*
X00208Y-01665*
X00206Y-01664*
X00206Y-01663*
X00205Y-01663*
X00204Y-01662*
X00203Y-0166*
X00202Y-01658*
X00202Y-01656*
X00201Y-01653*
X00201Y-0165*
Y-0165*
Y-0165*
Y-01649*
X00201Y-01647*
X00201Y-01645*
X00202Y-01643*
X00203Y-01641*
X00204Y-01639*
X00206Y-01637*
X00206Y-01636*
X00207Y-01636*
X00208Y-01635*
X00209Y-01634*
X00211Y-01633*
X00213Y-01632*
X00216Y-01632*
X00219Y-01631*
X00238*
Y-01669*
G37*
G36*
X01745Y-0163D02*
X01747Y-01631D01*
X01749Y-01631*
X01751Y-01632*
X01753Y-01633*
X01755Y-01635*
X01755Y-01635*
X01756Y-01636*
X01756Y-01637*
X01757Y-01638*
X01758Y-0164*
X01759Y-01643*
X01759Y-01645*
X01759Y-01648*
Y-01697*
Y-01697*
Y-01697*
Y-01699*
X01759Y-017*
X01759Y-01702*
X01758Y-01704*
X01757Y-01707*
X01756Y-01709*
X01755Y-01711*
X01755Y-01711*
X01754Y-01712*
X01753Y-01712*
X01752Y-01713*
X0175Y-01714*
X01747Y-01715*
X01745Y-01715*
X01742Y-01716*
X0174*
X01739Y-01715*
X01737Y-01715*
X01735Y-01715*
X01733Y-01714*
X01731Y-01713*
X01729Y-01711*
X01729Y-01711*
X01728Y-0171*
X01727Y-01709*
X01727Y-01707*
X01726Y-01705*
X01725Y-01703*
X01725Y-017*
X01724Y-01697*
Y-01648*
Y-01648*
Y-01648*
Y-01647*
X01725Y-01645*
X01725Y-01643*
X01725Y-01641*
X01726Y-01639*
X01727Y-01637*
X01729Y-01635*
X01729Y-01635*
X0173Y-01634*
X01731Y-01633*
X01732Y-01632*
X01734Y-01632*
X01736Y-01631*
X01739Y-0163*
X01742Y-0163*
X01743*
X01745Y-0163*
G37*
G36*
X00582D02*
X00584Y-01631D01*
X00586Y-01631*
X00588Y-01632*
X0059Y-01633*
X00592Y-01635*
X00592Y-01635*
X00593Y-01636*
X00593Y-01637*
X00594Y-01638*
X00595Y-0164*
X00596Y-01643*
X00596Y-01645*
X00596Y-01648*
Y-01697*
Y-01697*
Y-01697*
Y-01699*
X00596Y-017*
X00596Y-01702*
X00595Y-01704*
X00594Y-01707*
X00593Y-01709*
X00592Y-01711*
X00592Y-01711*
X00591Y-01712*
X0059Y-01712*
X00589Y-01713*
X00587Y-01714*
X00584Y-01715*
X00582Y-01715*
X00579Y-01716*
X00577*
X00576Y-01715*
X00574Y-01715*
X00572Y-01715*
X0057Y-01714*
X00568Y-01713*
X00566Y-01711*
X00566Y-01711*
X00565Y-0171*
X00564Y-01709*
X00564Y-01707*
X00563Y-01705*
X00562Y-01703*
X00562Y-017*
X00561Y-01697*
Y-01648*
Y-01648*
Y-01648*
Y-01647*
X00562Y-01645*
X00562Y-01643*
X00562Y-01641*
X00563Y-01639*
X00564Y-01637*
X00566Y-01635*
X00566Y-01635*
X00567Y-01634*
X00568Y-01633*
X00569Y-01632*
X00571Y-01632*
X00573Y-01631*
X00576Y-0163*
X00579Y-0163*
X0058*
X00582Y-0163*
G37*
G54D10*
X02746Y01387D02*
X02805D01*
X02746Y01446D02*
X02805D01*
Y01387D02*
Y01446D01*
X02746Y01387D02*
Y01446D01*
G54D80*
X00492Y-00728D03*
Y-00807D03*
Y-00885D03*
G54D87*
X00551Y-00964D03*
G54D106*
X0045Y0029D03*
X033Y-0115D03*
X032Y-0015D03*
X033Y-0065D03*
G54D107*
X029Y-0075D03*
X03D03*
X031D03*
X032D03*
X033Y-0025D03*
X032Y-0135D03*
Y-0145D03*
X033Y-0005D03*
X029Y-0125D03*
X03D03*
X032D03*
X033D03*
X031D03*
X033Y-0015D03*
Y-0135D03*
X032Y-0025D03*
X033Y-0035D03*
Y-0055D03*
G54D108*
X0124Y00293D03*
X033Y-0105D03*
Y-0075D03*
Y-0085D03*
Y-0095D03*
X0124Y01337D03*
X009Y0029D03*
X033Y-0045D03*
G54D109*
X00136Y-0055D03*
Y-0045D03*
Y-0035D03*
Y-0025D03*
Y-0015D03*
Y-0005D03*
Y0005D03*
Y0015D03*
Y0025D03*
Y0095D03*
Y0085D03*
Y0075D03*
Y0065D03*
Y0055D03*
Y0045D03*
Y0035D03*
Y-0095D03*
Y-0085D03*
Y-0075D03*
Y-0065D03*
G54D110*
X033Y-0145D03*
G54D111*
X00078Y01405D03*
Y01114D03*
G54D112*
X0124Y00393D03*
Y00493D03*
X029Y-0005D03*
X03D03*
X031D03*
X032D03*
X029Y-0065D03*
X03D03*
X031D03*
X032D03*
X029Y-0135D03*
Y-0145D03*
X03Y-0135D03*
Y-0145D03*
X031Y-0135D03*
Y-0145D03*
X032Y-0035D03*
X03Y-0045D03*
X031Y-0095D03*
Y-0085D03*
X032Y-0095D03*
Y-0085D03*
X03Y-0105D03*
X029Y-0115D03*
X03D03*
X032D03*
X029Y-0085D03*
X031Y-0115D03*
X03Y-0085D03*
X032Y-0105D03*
X029Y-0095D03*
X03D03*
X029Y-0105D03*
X031D03*
X00236Y-0095D03*
Y-0085D03*
Y-0075D03*
Y-0065D03*
Y-0055D03*
Y-0045D03*
Y-0035D03*
Y-0025D03*
Y-0015D03*
Y-0005D03*
Y0005D03*
Y0015D03*
Y0025D03*
Y0095D03*
Y0085D03*
Y0075D03*
Y0065D03*
Y0055D03*
Y0045D03*
Y0035D03*
X031Y-0035D03*
Y-0045D03*
X029D03*
X0124Y01137D03*
Y01237D03*
Y01437D03*
Y01037D03*
X009Y0039D03*
X029Y-0015D03*
X031D03*
X03D03*
X029Y-0035D03*
X032Y-0045D03*
X03Y-0035D03*
X029Y-0055D03*
X03D03*
X031D03*
X032D03*
X031Y-0025D03*
X03D03*
X029D03*
X0045Y0039D03*
G54D113*
X03277Y00314D03*
X00275Y01417D03*
X03277D03*
X02165Y-01358D03*
G54D114*
X00393Y01417D03*
X03149D03*
Y00098D03*
G54D115*
X03159Y01007D03*
X0312D03*
X0308D03*
X03041D03*
X03001D03*
X02962D03*
X02923D03*
X02899Y01039D03*
X02942D03*
X02982D03*
X03159Y01196D03*
X0312D03*
X0308D03*
X03041D03*
X03001D03*
X02962D03*
X02923D03*
X02899Y01165D03*
X02942D03*
X02982D03*
X03159Y00535D03*
X0312D03*
X0308D03*
X03041D03*
X03001D03*
X02962D03*
X02923D03*
X02899Y00566D03*
X02942D03*
X02982D03*
X03159Y00724D03*
X0312D03*
X0308D03*
X03041D03*
X03001D03*
X02962D03*
X02923D03*
X02899Y00692D03*
X02942D03*
X02982D03*
G54D129*
X03031Y00629D03*
Y01102D03*
M02*