%FSTAX23Y23*%
%MOIN*%
%SFA1B1*%

%IPPOS*%
%AMD17*
4,1,8,-0.018700,0.023000,-0.023000,0.018700,-0.023000,0.014600,0.014600,-0.023000,0.018700,-0.023000,0.023000,-0.018700,0.023000,-0.014600,-0.014600,0.023000,-0.018700,0.023000,0.0*
1,1,0.005906,-0.016700,0.020900*
1,1,0.005906,-0.020900,0.016700*
1,1,0.005906,0.016700,-0.020900*
1,1,0.005906,0.020900,-0.016700*
%
%AMD18*
4,1,8,0.023000,0.018700,0.018700,0.023000,0.014600,0.023000,-0.023000,-0.014600,-0.023000,-0.018700,-0.018700,-0.023000,-0.014600,-0.023000,0.023000,0.014600,0.023000,0.018700,0.0*
1,1,0.005906,0.020900,0.016700*
1,1,0.005906,0.016700,0.020900*
1,1,0.005906,-0.020900,-0.016700*
1,1,0.005906,-0.016700,-0.020900*
%
%AMD19*
4,1,8,-0.007700,-0.011800,0.007700,-0.011800,0.011800,-0.007700,0.011800,0.007700,0.007700,0.011800,-0.007700,0.011800,-0.011800,0.007700,-0.011800,-0.007700,-0.007700,-0.011800,0.0*
1,1,0.008268,-0.007700,-0.007700*
1,1,0.008268,0.007700,-0.007700*
1,1,0.008268,0.007700,0.007700*
1,1,0.008268,-0.007700,0.007700*
%
%AMD20*
4,1,8,0.012800,0.013800,-0.012800,0.013800,-0.019700,0.006900,-0.019700,-0.006900,-0.012800,-0.013800,0.012800,-0.013800,0.019700,-0.006900,0.019700,0.006900,0.012800,0.013800,0.0*
1,1,0.013780,0.012800,0.006900*
1,1,0.013780,-0.012800,0.006900*
1,1,0.013780,-0.012800,-0.006900*
1,1,0.013780,0.012800,-0.006900*
%
%AMD21*
4,1,8,-0.021700,0.010200,-0.021700,-0.010200,-0.016100,-0.015700,0.016100,-0.015700,0.021700,-0.010200,0.021700,0.010200,0.016100,0.015700,-0.016100,0.015700,-0.021700,0.010200,0.0*
1,1,0.011024,-0.016100,0.010200*
1,1,0.011024,-0.016100,-0.010200*
1,1,0.011024,0.016100,-0.010200*
1,1,0.011024,0.016100,0.010200*
%
%AMD22*
4,1,8,-0.002500,-0.008900,0.002500,-0.008900,0.004900,-0.006400,0.004900,0.006400,0.002500,0.008900,-0.002500,0.008900,-0.004900,0.006400,-0.004900,-0.006400,-0.002500,-0.008900,0.0*
1,1,0.004921,-0.002500,-0.006400*
1,1,0.004921,0.002500,-0.006400*
1,1,0.004921,0.002500,0.006400*
1,1,0.004921,-0.002500,0.006400*
%
%AMD23*
4,1,8,0.011800,-0.007700,0.011800,0.007700,0.007700,0.011800,-0.007700,0.011800,-0.011800,0.007700,-0.011800,-0.007700,-0.007700,-0.011800,0.007700,-0.011800,0.011800,-0.007700,0.0*
1,1,0.008268,0.007700,-0.007700*
1,1,0.008268,0.007700,0.007700*
1,1,0.008268,-0.007700,0.007700*
1,1,0.008268,-0.007700,-0.007700*
%
%AMD24*
4,1,8,0.010200,0.021700,-0.010200,0.021700,-0.015700,0.016100,-0.015700,-0.016100,-0.010200,-0.021700,0.010200,-0.021700,0.015700,-0.016100,0.015700,0.016100,0.010200,0.021700,0.0*
1,1,0.011024,0.010200,0.016100*
1,1,0.011024,-0.010200,0.016100*
1,1,0.011024,-0.010200,-0.016100*
1,1,0.011024,0.010200,-0.016100*
%
%AMD25*
4,1,8,0.022600,0.008100,0.008100,0.022600,0.000300,0.022500,-0.022500,-0.000300,-0.022600,-0.008100,-0.008100,-0.022600,-0.000300,-0.022500,0.022500,0.000300,0.022600,0.008100,0.0*
1,1,0.011024,0.018600,0.004200*
1,1,0.011024,0.004200,0.018600*
1,1,0.011024,-0.018600,-0.004200*
1,1,0.011024,-0.004200,-0.018600*
%
%AMD26*
4,1,8,-0.007900,-0.003900,0.007900,-0.003900,0.009800,-0.002000,0.009800,0.002000,0.007900,0.003900,-0.007900,0.003900,-0.009800,0.002000,-0.009800,-0.002000,-0.007900,-0.003900,0.0*
1,1,0.003937,-0.007900,-0.002000*
1,1,0.003937,0.007900,-0.002000*
1,1,0.003937,0.007900,0.002000*
1,1,0.003937,-0.007900,0.002000*
%
%AMD27*
4,1,8,-0.027600,0.012800,-0.027600,-0.012800,-0.020700,-0.019700,0.020700,-0.019700,0.027600,-0.012800,0.027600,0.012800,0.020700,0.019700,-0.020700,0.019700,-0.027600,0.012800,0.0*
1,1,0.013780,-0.020700,0.012800*
1,1,0.013780,-0.020700,-0.012800*
1,1,0.013780,0.020700,-0.012800*
1,1,0.013780,0.020700,0.012800*
%
%AMD28*
4,1,8,0.009800,-0.010800,0.009800,0.010800,0.004900,0.015700,-0.004900,0.015700,-0.009800,0.010800,-0.009800,-0.010800,-0.004900,-0.015700,0.004900,-0.015700,0.009800,-0.010800,0.0*
1,1,0.009843,0.004900,-0.010800*
1,1,0.009843,0.004900,0.010800*
1,1,0.009843,-0.004900,0.010800*
1,1,0.009843,-0.004900,-0.010800*
%
%AMD29*
4,1,8,-0.013800,-0.002900,-0.002900,-0.013800,0.002900,-0.013800,0.013800,-0.002900,0.013800,0.002900,0.002900,0.013800,-0.002900,0.013800,-0.013800,0.002900,-0.013800,-0.002900,0.0*
1,1,0.008268,-0.010900,0.000000*
1,1,0.008268,0.000000,-0.010900*
1,1,0.008268,0.010900,0.000000*
1,1,0.008268,0.000000,0.010900*
%
%AMD30*
4,1,8,0.002900,-0.013800,0.013800,-0.002900,0.013800,0.002900,0.002900,0.013800,-0.002900,0.013800,-0.013800,0.002900,-0.013800,-0.002900,-0.002900,-0.013800,0.002900,-0.013800,0.0*
1,1,0.008268,0.000000,-0.010900*
1,1,0.008268,0.010900,0.000000*
1,1,0.008268,0.000000,0.010900*
1,1,0.008268,-0.010900,0.000000*
%
%AMD31*
4,1,8,0.019200,0.029500,-0.019200,0.029500,-0.029500,0.019200,-0.029500,-0.019200,-0.019200,-0.029500,0.019200,-0.029500,0.029500,-0.019200,0.029500,0.019200,0.019200,0.029500,0.0*
1,1,0.020669,0.019200,0.019200*
1,1,0.020669,-0.019200,0.019200*
1,1,0.020669,-0.019200,-0.019200*
1,1,0.020669,0.019200,-0.019200*
%
%AMD32*
4,1,8,0.026100,0.006900,-0.026100,0.006900,-0.029500,0.003400,-0.029500,-0.003400,-0.026100,-0.006900,0.026100,-0.006900,0.029500,-0.003400,0.029500,0.003400,0.026100,0.006900,0.0*
1,1,0.006890,0.026100,0.003400*
1,1,0.006890,-0.026100,0.003400*
1,1,0.006890,-0.026100,-0.003400*
1,1,0.006890,0.026100,-0.003400*
%
%AMD33*
4,1,8,0.025600,0.049200,-0.025600,0.049200,-0.039400,0.035400,-0.039400,-0.035400,-0.025600,-0.049200,0.025600,-0.049200,0.039400,-0.035400,0.039400,0.035400,0.025600,0.049200,0.0*
1,1,0.027559,0.025600,0.035400*
1,1,0.027559,-0.025600,0.035400*
1,1,0.027559,-0.025600,-0.035400*
1,1,0.027559,0.025600,-0.035400*
%
%AMD34*
4,1,8,-0.010800,-0.009800,0.010800,-0.009800,0.015700,-0.004900,0.015700,0.004900,0.010800,0.009800,-0.010800,0.009800,-0.015700,0.004900,-0.015700,-0.004900,-0.010800,-0.009800,0.0*
1,1,0.009843,-0.010800,-0.004900*
1,1,0.009843,0.010800,-0.004900*
1,1,0.009843,0.010800,0.004900*
1,1,0.009843,-0.010800,0.004900*
%
%AMD35*
4,1,8,-0.002200,-0.015700,0.002200,-0.015700,0.004300,-0.013600,0.004300,0.013600,0.002200,0.015700,-0.002200,0.015700,-0.004300,0.013600,-0.004300,-0.013600,-0.002200,-0.015700,0.0*
1,1,0.004331,-0.002200,-0.013600*
1,1,0.004331,0.002200,-0.013600*
1,1,0.004331,0.002200,0.013600*
1,1,0.004331,-0.002200,0.013600*
%
%AMD36*
4,1,8,0.015700,-0.002200,0.015700,0.002200,0.013600,0.004300,-0.013600,0.004300,-0.015700,0.002200,-0.015700,-0.002200,-0.013600,-0.004300,0.013600,-0.004300,0.015700,-0.002200,0.0*
1,1,0.004331,0.013600,-0.002200*
1,1,0.004331,0.013600,0.002200*
1,1,0.004331,-0.013600,0.002200*
1,1,0.004331,-0.013600,-0.002200*
%
%AMD37*
4,1,8,0.000000,0.022200,-0.022200,0.000000,-0.022300,-0.011100,-0.011100,-0.022300,0.000000,-0.022200,0.022200,0.000000,0.022300,0.011100,0.011100,0.022300,0.000000,0.022200,0.0*
1,1,0.015748,0.005500,0.016700*
1,1,0.015748,-0.016700,-0.005500*
1,1,0.015748,-0.005500,-0.016700*
1,1,0.015748,0.016700,0.005500*
%
%AMD38*
4,1,8,0.003000,0.015700,-0.003000,0.015700,-0.005900,0.012800,-0.005900,-0.012800,-0.003000,-0.015700,0.003000,-0.015700,0.005900,-0.012800,0.005900,0.012800,0.003000,0.015700,0.0*
1,1,0.005906,0.003000,0.012800*
1,1,0.005906,-0.003000,0.012800*
1,1,0.005906,-0.003000,-0.012800*
1,1,0.005906,0.003000,-0.012800*
%
%AMD39*
4,1,8,0.030300,0.003000,0.003000,0.030300,-0.008600,0.030400,-0.030400,0.008600,-0.030300,-0.003000,-0.003000,-0.030300,0.008600,-0.030400,0.030400,-0.008600,0.030300,0.003000,0.0*
1,1,0.016535,0.024500,-0.002800*
1,1,0.016535,-0.002800,0.024500*
1,1,0.016535,-0.024500,0.002800*
1,1,0.016535,0.002800,-0.024500*
%
%AMD40*
4,1,8,-0.005900,0.006900,-0.005900,-0.006900,-0.003000,-0.009800,0.003000,-0.009800,0.005900,-0.006900,0.005900,0.006900,0.003000,0.009800,-0.003000,0.009800,-0.005900,0.006900,0.0*
1,1,0.005906,-0.003000,0.006900*
1,1,0.005906,-0.003000,-0.006900*
1,1,0.005906,0.003000,-0.006900*
1,1,0.005906,0.003000,0.006900*
%
%AMD41*
4,1,8,0.006900,0.005900,-0.006900,0.005900,-0.009800,0.003000,-0.009800,-0.003000,-0.006900,-0.005900,0.006900,-0.005900,0.009800,-0.003000,0.009800,0.003000,0.006900,0.005900,0.0*
1,1,0.005906,0.006900,0.003000*
1,1,0.005906,-0.006900,0.003000*
1,1,0.005906,-0.006900,-0.003000*
1,1,0.005906,0.006900,-0.003000*
%
%AMD42*
4,1,8,0.019700,-0.010200,0.019700,0.010200,0.014200,0.015700,-0.014200,0.015700,-0.019700,0.010200,-0.019700,-0.010200,-0.014200,-0.015700,0.014200,-0.015700,0.019700,-0.010200,0.0*
1,1,0.011024,0.014200,-0.010200*
1,1,0.011024,0.014200,0.010200*
1,1,0.011024,-0.014200,0.010200*
1,1,0.011024,-0.014200,-0.010200*
%
%AMD43*
4,1,8,-0.010100,0.037300,-0.037300,0.010100,-0.037300,0.001100,0.001100,-0.037300,0.010100,-0.037300,0.037300,-0.010100,0.037300,-0.001100,-0.001100,0.037300,-0.010100,0.037300,0.0*
1,1,0.012795,-0.005600,0.032700*
1,1,0.012795,-0.032700,0.005600*
1,1,0.012795,0.005600,-0.032700*
1,1,0.012795,0.032700,-0.005600*
%
%AMD44*
4,1,8,0.016700,0.013800,-0.016700,0.013800,-0.023600,0.006900,-0.023600,-0.006900,-0.016700,-0.013800,0.016700,-0.013800,0.023600,-0.006900,0.023600,0.006900,0.016700,0.013800,0.0*
1,1,0.013780,0.016700,0.006900*
1,1,0.013780,-0.016700,0.006900*
1,1,0.013780,-0.016700,-0.006900*
1,1,0.013780,0.016700,-0.006900*
%
%AMD45*
4,1,8,-0.017700,0.010200,-0.017700,-0.010200,-0.012200,-0.015700,0.012200,-0.015700,0.017700,-0.010200,0.017700,0.010200,0.012200,0.015700,-0.012200,0.015700,-0.017700,0.010200,0.0*
1,1,0.011024,-0.012200,0.010200*
1,1,0.011024,-0.012200,-0.010200*
1,1,0.011024,0.012200,-0.010200*
1,1,0.011024,0.012200,0.010200*
%
%AMD48*
4,1,8,0.033500,-0.019200,0.033500,0.019200,0.027100,0.025600,-0.027100,0.025600,-0.033500,0.019200,-0.033500,-0.019200,-0.027100,-0.025600,0.027100,-0.025600,0.033500,-0.019200,0.0*
1,1,0.012795,0.027100,-0.019200*
1,1,0.012795,0.027100,0.019200*
1,1,0.012795,-0.027100,0.019200*
1,1,0.012795,-0.027100,-0.019200*
%
%AMD49*
4,1,8,0.015700,-0.049600,0.015700,0.049600,0.010200,0.055100,-0.010200,0.055100,-0.015700,0.049600,-0.015700,-0.049600,-0.010200,-0.055100,0.010200,-0.055100,0.015700,-0.049600,0.0*
1,1,0.011024,0.010200,-0.049600*
1,1,0.011024,0.010200,0.049600*
1,1,0.011024,-0.010200,0.049600*
1,1,0.011024,-0.010200,-0.049600*
%
%AMD50*
4,1,8,0.019300,0.023600,-0.019300,0.023600,-0.027600,0.015400,-0.027600,-0.015400,-0.019300,-0.023600,0.019300,-0.023600,0.027600,-0.015400,0.027600,0.015400,0.019300,0.023600,0.0*
1,1,0.016535,0.019300,0.015400*
1,1,0.016535,-0.019300,0.015400*
1,1,0.016535,-0.019300,-0.015400*
1,1,0.016535,0.019300,-0.015400*
%
%AMD51*
4,1,8,-0.009700,-0.005900,0.009700,-0.005900,0.011800,-0.003800,0.011800,0.003800,0.009700,0.005900,-0.009700,0.005900,-0.011800,0.003800,-0.011800,-0.003800,-0.009700,-0.005900,0.0*
1,1,0.004134,-0.009700,-0.003800*
1,1,0.004134,0.009700,-0.003800*
1,1,0.004134,0.009700,0.003800*
1,1,0.004134,-0.009700,0.003800*
%
%AMD52*
4,1,8,-0.057100,-0.057100,0.057100,-0.057100,0.057100,-0.057100,0.057100,0.057100,0.057100,0.057100,-0.057100,0.057100,-0.057100,0.057100,-0.057100,-0.057100,-0.057100,-0.057100,0.0*
1,1,0.000000,-0.057100,-0.057100*
1,1,0.000000,0.057100,-0.057100*
1,1,0.000000,0.057100,0.057100*
1,1,0.000000,-0.057100,0.057100*
%
%AMD53*
4,1,8,0.020700,0.059100,-0.020700,0.059100,-0.027600,0.052200,-0.027600,-0.052200,-0.020700,-0.059100,0.020700,-0.059100,0.027600,-0.052200,0.027600,0.052200,0.020700,0.059100,0.0*
1,1,0.013780,0.020700,0.052200*
1,1,0.013780,-0.020700,0.052200*
1,1,0.013780,-0.020700,-0.052200*
1,1,0.013780,0.020700,-0.052200*
%
%AMD54*
4,1,8,-0.015700,0.007700,-0.015700,-0.007700,-0.011600,-0.011800,0.011600,-0.011800,0.015700,-0.007700,0.015700,0.007700,0.011600,0.011800,-0.011600,0.011800,-0.015700,0.007700,0.0*
1,1,0.008268,-0.011600,0.007700*
1,1,0.008268,-0.011600,-0.007700*
1,1,0.008268,0.011600,-0.007700*
1,1,0.008268,0.011600,0.007700*
%
%AMD55*
4,1,8,-0.015700,0.005100,-0.015700,-0.005100,-0.013000,-0.007900,0.013000,-0.007900,0.015700,-0.005100,0.015700,0.005100,0.013000,0.007900,-0.013000,0.007900,-0.015700,0.005100,0.0*
1,1,0.005512,-0.013000,0.005100*
1,1,0.005512,-0.013000,-0.005100*
1,1,0.005512,0.013000,-0.005100*
1,1,0.005512,0.013000,0.005100*
%
%AMD56*
4,1,8,-0.002000,-0.006500,0.002000,-0.006500,0.003900,-0.004500,0.003900,0.004500,0.002000,0.006500,-0.002000,0.006500,-0.003900,0.004500,-0.003900,-0.004500,-0.002000,-0.006500,0.0*
1,1,0.003937,-0.002000,-0.004500*
1,1,0.003937,0.002000,-0.004500*
1,1,0.003937,0.002000,0.004500*
1,1,0.003937,-0.002000,0.004500*
%
%AMD57*
4,1,8,-0.008900,0.002500,-0.008900,-0.002500,-0.006400,-0.004900,0.006400,-0.004900,0.008900,-0.002500,0.008900,0.002500,0.006400,0.004900,-0.006400,0.004900,-0.008900,0.002500,0.0*
1,1,0.004921,-0.006400,0.002500*
1,1,0.004921,-0.006400,-0.002500*
1,1,0.004921,0.006400,-0.002500*
1,1,0.004921,0.006400,0.002500*
%
%AMD58*
4,1,8,-0.012400,0.037700,-0.037700,0.012400,-0.037800,-0.001300,-0.001300,-0.037800,0.012400,-0.037700,0.037700,-0.012400,0.037800,0.001300,0.001300,0.037800,-0.012400,0.037700,0.0*
1,1,0.019291,-0.005600,0.030900*
1,1,0.019291,-0.030900,0.005600*
1,1,0.019291,0.005600,-0.030900*
1,1,0.019291,0.030900,-0.005600*
%
%AMD59*
4,1,8,0.014100,0.041300,-0.014100,0.041300,-0.021700,0.033800,-0.021700,-0.033800,-0.014100,-0.041300,0.014100,-0.041300,0.021700,-0.033800,0.021700,0.033800,0.014100,0.041300,0.0*
1,1,0.015157,0.014100,0.033800*
1,1,0.015157,-0.014100,0.033800*
1,1,0.015157,-0.014100,-0.033800*
1,1,0.015157,0.014100,-0.033800*
%
G04~CAMADD=17~8~0.0~0.0~118.1~590.6~29.5~0.0~15~0.0~0.0~0.0~0.0~0~0.0~0.0~0.0~0.0~0~0.0~0.0~0.0~45.0~476.0~476.0*
%ADD17D17*%
G04~CAMADD=18~8~0.0~0.0~118.1~590.6~29.5~0.0~15~0.0~0.0~0.0~0.0~0~0.0~0.0~0.0~0.0~0~0.0~0.0~0.0~315.0~476.0~476.0*
%ADD18D18*%
G04~CAMADD=19~8~0.0~0.0~236.2~236.2~41.3~0.0~15~0.0~0.0~0.0~0.0~0~0.0~0.0~0.0~0.0~0~0.0~0.0~0.0~180.0~236.0~236.0*
%ADD19D19*%
G04~CAMADD=20~8~0.0~0.0~393.7~275.6~68.9~0.0~15~0.0~0.0~0.0~0.0~0~0.0~0.0~0.0~0.0~0~0.0~0.0~0.0~0.0~393.7~275.6*
%ADD20D20*%
G04~CAMADD=21~8~0.0~0.0~315.0~433.1~55.1~0.0~15~0.0~0.0~0.0~0.0~0~0.0~0.0~0.0~0.0~0~0.0~0.0~0.0~90.0~434.0~315.0*
%ADD21D21*%
G04~CAMADD=22~8~0.0~0.0~98.4~177.2~24.6~0.0~15~0.0~0.0~0.0~0.0~0~0.0~0.0~0.0~0.0~0~0.0~0.0~0.0~180.0~100.0~178.0*
%ADD22D22*%
G04~CAMADD=23~8~0.0~0.0~236.2~236.2~41.3~0.0~15~0.0~0.0~0.0~0.0~0~0.0~0.0~0.0~0.0~0~0.0~0.0~0.0~270.0~236.0~236.0*
%ADD23D23*%
G04~CAMADD=24~8~0.0~0.0~315.0~433.1~55.1~0.0~15~0.0~0.0~0.0~0.0~0~0.0~0.0~0.0~0.0~0~0.0~0.0~0.0~0.0~315.0~433.1*
%ADD24D24*%
G04~CAMADD=25~8~0.0~0.0~315.0~433.1~55.1~0.0~15~0.0~0.0~0.0~0.0~0~0.0~0.0~0.0~0.0~0~0.0~0.0~0.0~315.0~482.0~482.0*
%ADD25D25*%
G04~CAMADD=26~8~0.0~0.0~196.9~78.7~19.7~0.0~15~0.0~0.0~0.0~0.0~0~0.0~0.0~0.0~0.0~0~0.0~0.0~0.0~180.0~196.0~78.0*
%ADD26D26*%
G04~CAMADD=27~8~0.0~0.0~393.7~551.2~68.9~0.0~15~0.0~0.0~0.0~0.0~0~0.0~0.0~0.0~0.0~0~0.0~0.0~0.0~90.0~552.0~395.0*
%ADD27D27*%
G04~CAMADD=28~8~0.0~0.0~315.0~196.9~49.2~0.0~15~0.0~0.0~0.0~0.0~0~0.0~0.0~0.0~0.0~0~0.0~0.0~0.0~270.0~196.0~314.0*
%ADD28D28*%
G04~CAMADD=29~8~0.0~0.0~236.2~236.2~41.3~0.0~15~0.0~0.0~0.0~0.0~0~0.0~0.0~0.0~0.0~0~0.0~0.0~0.0~135.0~300.0~299.0*
%ADD29D29*%
G04~CAMADD=30~8~0.0~0.0~236.2~236.2~41.3~0.0~15~0.0~0.0~0.0~0.0~0~0.0~0.0~0.0~0.0~0~0.0~0.0~0.0~225.0~300.0~299.0*
%ADD30D30*%
G04~CAMADD=31~8~0.0~0.0~590.6~590.6~103.3~0.0~15~0.0~0.0~0.0~0.0~0~0.0~0.0~0.0~0.0~0~0.0~0.0~0.0~0.0~590.6~590.6*
%ADD31D31*%
G04~CAMADD=32~8~0.0~0.0~590.6~137.8~34.4~0.0~15~0.0~0.0~0.0~0.0~0~0.0~0.0~0.0~0.0~0~0.0~0.0~0.0~0.0~590.6~137.8*
%ADD32D32*%
G04~CAMADD=33~8~0.0~0.0~787.4~984.3~137.8~0.0~15~0.0~0.0~0.0~0.0~0~0.0~0.0~0.0~0.0~0~0.0~0.0~0.0~0.0~787.4~984.3*
%ADD33D33*%
G04~CAMADD=34~8~0.0~0.0~315.0~196.9~49.2~0.0~15~0.0~0.0~0.0~0.0~0~0.0~0.0~0.0~0.0~0~0.0~0.0~0.0~180.0~314.0~196.0*
%ADD34D34*%
G04~CAMADD=35~8~0.0~0.0~86.6~315.0~21.7~0.0~15~0.0~0.0~0.0~0.0~0~0.0~0.0~0.0~0.0~0~0.0~0.0~0.0~180.0~86.0~314.0*
%ADD35D35*%
G04~CAMADD=36~8~0.0~0.0~86.6~315.0~21.7~0.0~15~0.0~0.0~0.0~0.0~0~0.0~0.0~0.0~0.0~0~0.0~0.0~0.0~270.0~314.0~86.0*
%ADD36D36*%
G04~CAMADD=37~8~0.0~0.0~472.4~315.0~78.7~0.0~15~0.0~0.0~0.0~0.0~0~0.0~0.0~0.0~0.0~0~0.0~0.0~0.0~45.0~490.0~490.0*
%ADD37D37*%
G04~CAMADD=38~8~0.0~0.0~118.1~315.0~29.5~0.0~15~0.0~0.0~0.0~0.0~0~0.0~0.0~0.0~0.0~0~0.0~0.0~0.0~0.0~118.1~315.0*
%ADD38D38*%
G04~CAMADD=39~8~0.0~0.0~551.2~472.4~82.7~0.0~15~0.0~0.0~0.0~0.0~0~0.0~0.0~0.0~0.0~0~0.0~0.0~0.0~315.0~654.0~654.0*
%ADD39D39*%
G04~CAMADD=40~8~0.0~0.0~196.9~118.1~29.5~0.0~15~0.0~0.0~0.0~0.0~0~0.0~0.0~0.0~0.0~0~0.0~0.0~0.0~90.0~118.0~196.0*
%ADD40D40*%
G04~CAMADD=41~8~0.0~0.0~196.9~118.1~29.5~0.0~15~0.0~0.0~0.0~0.0~0~0.0~0.0~0.0~0.0~0~0.0~0.0~0.0~0.0~196.9~118.1*
%ADD41D41*%
G04~CAMADD=42~8~0.0~0.0~315.0~393.7~55.1~0.0~15~0.0~0.0~0.0~0.0~0~0.0~0.0~0.0~0.0~0~0.0~0.0~0.0~270.0~394.0~315.0*
%ADD42D42*%
G04~CAMADD=43~8~0.0~0.0~511.8~669.3~64.0~0.0~15~0.0~0.0~0.0~0.0~0~0.0~0.0~0.0~0.0~0~0.0~0.0~0.0~45.0~783.0~781.0*
%ADD43D43*%
G04~CAMADD=44~8~0.0~0.0~472.4~275.6~68.9~0.0~15~0.0~0.0~0.0~0.0~0~0.0~0.0~0.0~0.0~0~0.0~0.0~0.0~0.0~472.4~275.6*
%ADD44D44*%
G04~CAMADD=45~8~0.0~0.0~315.0~354.3~55.1~0.0~15~0.0~0.0~0.0~0.0~0~0.0~0.0~0.0~0.0~0~0.0~0.0~0.0~90.0~354.0~314.0*
%ADD45D45*%
%ADD46R,0.181102X0.049212*%
%ADD47R,0.118110X0.078740*%
G04~CAMADD=48~8~0.0~0.0~511.8~669.3~64.0~0.0~15~0.0~0.0~0.0~0.0~0~0.0~0.0~0.0~0.0~0~0.0~0.0~0.0~270.0~670.0~512.0*
%ADD48D48*%
G04~CAMADD=49~8~0.0~0.0~1102.4~315.0~55.1~0.0~15~0.0~0.0~0.0~0.0~0~0.0~0.0~0.0~0.0~0~0.0~0.0~0.0~270.0~314.0~1102.0*
%ADD49D49*%
G04~CAMADD=50~8~0.0~0.0~551.2~472.4~82.7~0.0~15~0.0~0.0~0.0~0.0~0~0.0~0.0~0.0~0.0~0~0.0~0.0~0.0~0.0~551.2~472.4*
%ADD50D50*%
G04~CAMADD=51~8~0.0~0.0~236.2~118.1~20.7~0.0~15~0.0~0.0~0.0~0.0~0~0.0~0.0~0.0~0.0~0~0.0~0.0~0.0~180.0~236.0~118.0*
%ADD51D51*%
G04~CAMADD=52~8~0.0~0.0~1141.7~1141.7~0.0~0.0~15~0.0~0.0~0.0~0.0~0~0.0~0.0~0.0~0.0~0~0.0~0.0~0.0~180.0~1142.0~1142.0*
%ADD52D52*%
G04~CAMADD=53~8~0.0~0.0~551.2~1181.1~68.9~0.0~15~0.0~0.0~0.0~0.0~0~0.0~0.0~0.0~0.0~0~0.0~0.0~0.0~0.0~551.2~1181.1*
%ADD53D53*%
G04~CAMADD=54~8~0.0~0.0~236.2~315.0~41.3~0.0~15~0.0~0.0~0.0~0.0~0~0.0~0.0~0.0~0.0~0~0.0~0.0~0.0~90.0~314.0~236.0*
%ADD54D54*%
G04~CAMADD=55~8~0.0~0.0~157.5~315.0~27.6~0.0~15~0.0~0.0~0.0~0.0~0~0.0~0.0~0.0~0.0~0~0.0~0.0~0.0~90.0~316.0~157.0*
%ADD55D55*%
G04~CAMADD=56~8~0.0~0.0~78.7~129.9~19.7~0.0~15~0.0~0.0~0.0~0.0~0~0.0~0.0~0.0~0.0~0~0.0~0.0~0.0~180.0~78.0~130.0*
%ADD56D56*%
G04~CAMADD=57~8~0.0~0.0~98.4~177.2~24.6~0.0~15~0.0~0.0~0.0~0.0~0~0.0~0.0~0.0~0.0~0~0.0~0.0~0.0~90.0~178.0~99.0*
%ADD57D57*%
G04~CAMADD=58~8~0.0~0.0~551.2~708.7~96.5~0.0~15~0.0~0.0~0.0~0.0~0~0.0~0.0~0.0~0.0~0~0.0~0.0~0.0~45.0~810.0~809.0*
%ADD58D58*%
G04~CAMADD=59~8~0.0~0.0~433.1~826.8~75.8~0.0~15~0.0~0.0~0.0~0.0~0~0.0~0.0~0.0~0.0~0~0.0~0.0~0.0~0.0~433.1~826.8*
%ADD59D59*%
%LNsysdev3-1*%
%LPD*%
G36*
X00112Y01405D02*
Y01401D01*
X00109Y01394*
X00103Y01388*
X00096Y01385*
X00092*
X00064*
X00061*
X00053Y01388*
X00048Y01394*
X00045Y01401*
Y01405*
Y01435*
Y01438*
X00046Y01442*
X0005Y01445*
X00054Y01446*
X00056*
X00101*
X00103*
X00107Y01445*
X0011Y01442*
X00112Y01438*
Y01435*
Y01405*
G37*
G36*
Y01114D02*
Y01118D01*
X00109Y01125*
X00103Y0113*
X00096Y01133*
X00092*
X00064*
X00061*
X00053Y0113*
X00048Y01125*
X00045Y01118*
Y01114*
Y01083*
Y01081*
X00046Y01077*
X0005Y01074*
X00054Y01072*
X00056*
X00101*
X00103*
X00107Y01074*
X0011Y01077*
X00112Y01081*
Y01083*
Y01114*
G37*
G36*
X02466Y00943D02*
X02478Y00955D01*
X0248Y00957*
X02483Y00961*
X02485Y00966*
X02486Y00971*
X02486Y00974*
Y00978*
X02487Y00986*
X0249Y00993*
X02495Y01*
X02498Y01002*
X02536Y01041*
X02538Y01043*
X02544Y01045*
X0255*
X02556Y01043*
X02558Y01041*
X02586Y01013*
X02588Y01011*
X02591Y01005*
Y00999*
X02588Y00993*
X02586Y00991*
X02548Y00952*
X02545Y0095*
X02538Y00945*
X02531Y00942*
X02523Y00941*
X02519*
X02517Y0094*
X02511Y00939*
X02507Y00937*
X02502Y00934*
X025Y00933*
X02489Y00921*
X02466Y00943*
G37*
G54D17*
X01132Y-00054D03*
X01369Y-00987D03*
X01703Y-00653D03*
X01522Y-00834D03*
X00714Y-00472D03*
X00728Y-00458D03*
X00923Y-00263D03*
X00645Y-00541D03*
X00659Y-00527D03*
X00673Y-00513D03*
X00686Y-005D03*
X007Y-00486D03*
X00742Y-00444D03*
X00756Y-0043D03*
X0077Y-00416D03*
X00784Y-00402D03*
X00798Y-00388D03*
X00812Y-00374D03*
X00826Y-0036D03*
X0084Y-00346D03*
X00853Y-00333D03*
X00867Y-00319D03*
X00881Y-00305D03*
X00895Y-00291D03*
X00909Y-00277D03*
X00937Y-00249D03*
X00951Y-00235D03*
X00965Y-00221D03*
X00979Y-00207D03*
X00993Y-00193D03*
X01007Y-00179D03*
X01021Y-00166D03*
X01034Y-00152D03*
X01048Y-00138D03*
X01062Y-00124D03*
X01076Y-0011D03*
X0109Y-00096D03*
X01104Y-00082D03*
X01118Y-00068D03*
X01396Y-00959D03*
X01382Y-00973D03*
X01257Y-01098D03*
X01285Y-0107D03*
X01271Y-01084D03*
X01299Y-01056D03*
X01313Y-01042D03*
X01341Y-01015D03*
X01355Y-01001D03*
X01327Y-01029D03*
X01243Y-01112D03*
X01229Y-01126D03*
X0141Y-00945D03*
X01605Y-0075D03*
X01633Y-00722D03*
X01647Y-00708D03*
X01661Y-00694D03*
X01675Y-00681D03*
X01689Y-00667D03*
X01717Y-00639D03*
X01619Y-00736D03*
X01424Y-00931D03*
X01438Y-00917D03*
X01466Y-00889D03*
X0148Y-00875D03*
X01508Y-00848D03*
X01549Y-00806D03*
X01591Y-00764D03*
X01563Y-00792D03*
X01577Y-00778D03*
X01536Y-0082D03*
X01494Y-00861D03*
X01452Y-00903D03*
G54D18*
X01118Y-01112D03*
X00979Y-00973D03*
X0084Y-00834D03*
X00659Y-00653D03*
X01243Y-00068D03*
X01424Y-00249D03*
X01563Y-00388D03*
X01229Y-00054D03*
X01257Y-00082D03*
X01271Y-00096D03*
X01285Y-0011D03*
X01299Y-00124D03*
X01313Y-00138D03*
X01327Y-00152D03*
X01341Y-00166D03*
X01355Y-00179D03*
X01369Y-00193D03*
X01382Y-00207D03*
X01396Y-00221D03*
X0141Y-00235D03*
X01438Y-00263D03*
X01452Y-00277D03*
X01466Y-00291D03*
X0148Y-00305D03*
X01494Y-00319D03*
X01508Y-00333D03*
X01522Y-00346D03*
X01536Y-0036D03*
X01549Y-00374D03*
X01577Y-00402D03*
X01591Y-00416D03*
X01605Y-0043D03*
X01619Y-00444D03*
X01633Y-00458D03*
X01647Y-00472D03*
X01661Y-00486D03*
X01675Y-005D03*
X01689Y-00513D03*
X01703Y-00527D03*
X01717Y-00541D03*
X01132Y-01126D03*
X01104Y-01098D03*
X0109Y-01084D03*
X01076Y-0107D03*
X01062Y-01056D03*
X01048Y-01042D03*
X01034Y-01029D03*
X01021Y-01015D03*
X01007Y-01001D03*
X00993Y-00987D03*
X00965Y-00959D03*
X00951Y-00945D03*
X00937Y-00931D03*
X00923Y-00917D03*
X00909Y-00903D03*
X00895Y-00889D03*
X00881Y-00875D03*
X00867Y-00861D03*
X00853Y-00848D03*
X00826Y-0082D03*
X00812Y-00806D03*
X00798Y-00792D03*
X00784Y-00778D03*
X0077Y-00764D03*
X00756Y-0075D03*
X00742Y-00736D03*
X00728Y-00722D03*
X00714Y-00708D03*
X007Y-00694D03*
X00686Y-00681D03*
X00673Y-00667D03*
X00645Y-00639D03*
G54D19*
X00974Y-0123D03*
X0058D03*
X02145Y-00029D03*
X02706Y00846D03*
X00807Y00826D03*
Y00551D03*
X00846Y00728D03*
X02312Y0057D03*
X02096Y00856D03*
X01978D03*
X02805Y00846D03*
X02667Y00482D03*
X01791Y0058D03*
X02509Y00698D03*
X02401Y00826D03*
X01053Y-00019D03*
X01722Y-00009D03*
X02401Y00374D03*
X02047Y01181D03*
Y0122D03*
Y01043D03*
X01801Y00816D03*
X01535Y01122D03*
Y01161D03*
X02283Y01053D03*
X02244Y00856D03*
Y00944D03*
X01574Y01299D03*
X02588Y00698D03*
X02627D03*
X0244Y00826D03*
X01535Y01299D03*
X01899Y00777D03*
X0186D03*
X01938D03*
X01978D03*
X02017Y00856D03*
X02057D03*
X02135Y00777D03*
X02096D03*
X02627Y00482D03*
X02706Y00698D03*
X02667D03*
X02765Y00846D03*
X02273Y0057D03*
X0245D03*
X02411D03*
X02549Y00698D03*
X02007Y01122D03*
X02047D03*
X02204D03*
X02244D03*
X02125D03*
X02086D03*
X01751Y0058D03*
X01683Y-00009D03*
X01013Y-00019D03*
X02362Y00374D03*
X02244Y01053D03*
X01574Y01161D03*
Y01122D03*
X01545Y01003D03*
X01584D03*
X01801Y00856D03*
X01761D03*
Y00816D03*
X0184Y00856D03*
X01879D03*
X02007Y01043D03*
Y01003D03*
X02047D03*
X01978Y00915D03*
X01938D03*
X02007Y0122D03*
Y01181D03*
X02283Y00984D03*
X02244D03*
X02283Y00944D03*
X02204Y00856D03*
X02165Y01082D03*
X02125D03*
X02106Y-00029D03*
X0062Y-0123D03*
X01013D03*
X0058Y-00354D03*
X00541D03*
X00462D03*
X00501D03*
X02667Y00846D03*
X01978Y00009D03*
X01938D03*
X01978Y-00029D03*
X01938D03*
X00807Y00944D03*
X00846D03*
Y00885D03*
X00807D03*
Y00669D03*
X00846D03*
X00807Y00728D03*
X00846Y00551D03*
Y0061D03*
X00807D03*
X01643Y-00078D03*
X01683D03*
X01761D03*
X01722D03*
X00846Y00826D03*
G54D20*
X00405Y-01452D03*
X00618Y-01302D03*
Y-01352D03*
Y-01402D03*
Y-01452D03*
X00405Y-01402D03*
Y-01352D03*
Y-01302D03*
G54D21*
X01811Y-00068D03*
X01624Y0059D03*
X01486Y01161D03*
X02057Y01328D03*
X01633Y00866D03*
X01624Y00649D03*
X01486Y01102D03*
X02874Y00324D03*
Y00265D03*
X01633Y00925D03*
X02057Y01269D03*
X01811Y-00009D03*
G54D22*
X02076Y00128D03*
X02116D03*
X02057Y00029D03*
X02076D03*
X02096D03*
X02116D03*
X02096Y00128D03*
X02057D03*
G54D23*
X01978Y00177D03*
X02086Y00964D03*
X01811Y00098D03*
X02746Y0058D03*
X02529Y00511D03*
X02746Y00541D03*
X01683Y00649D03*
X02165Y0124D03*
X01998Y01309D03*
X02047Y00925D03*
X01722Y00856D03*
X01545Y00797D03*
X01968Y00964D03*
X01761Y00895D03*
X01722D03*
X01683D03*
X01811D03*
X01958Y01309D03*
X01683Y00688D03*
X02017Y00777D03*
Y00816D03*
X02057Y00777D03*
Y00816D03*
X02135D03*
Y00856D03*
X0186Y00935D03*
Y00895D03*
X01811Y00935D03*
X02746Y00501D03*
X02529Y00551D03*
X02746Y00659D03*
Y00698D03*
Y0062D03*
X02765Y00895D03*
Y00935D03*
X02165Y01161D03*
Y01122D03*
X02549Y00738D03*
Y00777D03*
X02086Y01043D03*
Y01082D03*
X02125Y01161D03*
Y012D03*
X02165D03*
X01811Y-0124D03*
Y-01279D03*
Y-01397D03*
Y-01437D03*
X01122Y00039D03*
Y00078D03*
X01683Y00935D03*
X01722D03*
X01574Y00875D03*
Y00915D03*
X01761Y00935D03*
X01968Y01003D03*
X01545Y00757D03*
X01722Y00816D03*
X02047Y00964D03*
X01998Y01269D03*
X01958D03*
X02322Y00984D03*
Y00944D03*
X02362D03*
Y00984D03*
X02204Y00816D03*
Y00777D03*
X02086Y01003D03*
X01978Y00137D03*
X02194Y00098D03*
Y00059D03*
X02667Y00275D03*
Y00314D03*
X02618Y00275D03*
Y00314D03*
X01811Y00059D03*
G54D24*
X02155Y00196D03*
X00561Y-01171D03*
X01072Y00029D03*
X02381Y00777D03*
X02539Y00816D03*
X0248D03*
X0244Y00777D03*
X01013Y00029D03*
X0062Y-01171D03*
X02096Y00196D03*
G54D25*
X0179Y-00569D03*
X01831Y-00611D03*
G54D26*
X02149Y00984D03*
X02181D03*
G54D27*
X00433Y00692D03*
X00511D03*
X0059Y00555D03*
X00433D03*
X00511D03*
X00433Y00968D03*
X00511D03*
X0059Y0083D03*
X00511D03*
X00433D03*
X00511Y00625D03*
X00433D03*
X0059D03*
X00511Y00763D03*
X00433D03*
X0059Y00901D03*
X00511D03*
X00433D03*
Y01039D03*
X00511D03*
G54D28*
X00708Y00909D03*
Y00633D03*
X0233Y00616D03*
X02293Y00702D03*
X02255Y00616D03*
X02431Y00702D03*
X02468Y00616D03*
X02393D03*
X00746Y00633D03*
X00671D03*
Y00547D03*
X00708D03*
X00746D03*
Y00909D03*
X00671D03*
Y00822D03*
X00708D03*
X00746D03*
G54D29*
X01795Y-00712D03*
X01765Y-00742D03*
X00783Y-00871D03*
X00576Y-00694D03*
X00655Y-00133D03*
X00565Y-00279D03*
X00625Y-00379D03*
X00596Y-00409D03*
X01463Y-01045D03*
X01293Y-00013D03*
X00911Y-00999D03*
X02828Y00655D03*
X02801Y00683D03*
X00624Y-00437D03*
X00653Y-00407D03*
X00537Y-00251D03*
X00683Y-00161D03*
X00939Y-01027D03*
X01265Y00013D03*
X01435Y-01017D03*
X00604Y-00722D03*
X00811Y-00899D03*
X01738Y-00714D03*
X01767Y-00684D03*
X01824Y-00683D03*
X01797Y-00655D03*
G54D30*
X0088Y00117D03*
X00782Y00019D03*
X00887Y-0019D03*
X01568Y-00887D03*
X01498Y-00163D03*
X01628Y-0031D03*
X01108Y-01206D03*
X0147Y-00191D03*
X01135Y-01178D03*
X016Y-00338D03*
X01596Y-0086D03*
X0086Y-00218D03*
X0081Y00047D03*
X00852Y00089D03*
G54D31*
X00177Y01385D03*
X00177Y01133D03*
G54D32*
X00188Y01208D03*
Y01259D03*
Y01234D03*
Y01285D03*
Y01311D03*
G54D33*
X00078Y01259D03*
G54D34*
X0269Y0058D03*
X02338Y00238D03*
X02604Y00543D03*
Y00618D03*
X0269D03*
Y00543D03*
X02425Y00275D03*
X02338Y00312D03*
G54D35*
X01761Y01279D03*
X01702D03*
X0182Y01003D03*
X0186D03*
X0182Y01279D03*
X0184D03*
X0186D03*
X01879D03*
X01663D03*
X01683D03*
X01722D03*
X01742D03*
X01781D03*
X01801D03*
X01663Y01003D03*
X01683D03*
X01702D03*
X01722D03*
X01742D03*
X01761D03*
X01781D03*
X0184D03*
X01801D03*
X01879D03*
G54D36*
X01909Y01112D03*
Y0125D03*
X01633Y01171D03*
X01909Y0123D03*
Y01092D03*
Y01072D03*
Y01053D03*
Y01033D03*
Y0121D03*
Y0119D03*
Y01171D03*
Y01131D03*
Y01151D03*
X01633Y01033D03*
Y01053D03*
Y01072D03*
Y01092D03*
Y01112D03*
Y01131D03*
Y01151D03*
Y0119D03*
Y0121D03*
Y0123D03*
Y0125D03*
G54D37*
X02469Y00924D03*
X02427Y00966D03*
X02511Y00882D03*
G54D38*
X02687Y0097D03*
X02661D03*
X02712D03*
Y00899D03*
X02661D03*
G54D39*
X00613Y-00259D03*
X00607Y-00153D03*
X00663Y-00209D03*
X00557Y-00203D03*
G54D40*
X01722Y00039D03*
X01702D03*
X01683Y00118D03*
X01702D03*
X01683Y00039D03*
X01722Y00118D03*
G54D41*
X01653Y00068D03*
Y00088D03*
Y00108D03*
Y00049D03*
X01751D03*
Y00068D03*
Y00088D03*
Y00108D03*
G54D42*
X02933Y00149D03*
X02874D03*
X02814D03*
X02755D03*
X02696D03*
X02637D03*
X02578D03*
X02519D03*
X01181Y0011D03*
X02755Y00307D03*
X00925Y00917D03*
Y00641D03*
X02519Y00307D03*
X01889Y-01385D03*
Y-01228D03*
Y-01291D03*
Y-01448D03*
X02519Y00244D03*
X00925Y00578D03*
Y00854D03*
X02755Y00244D03*
X01181Y00047D03*
X02519Y00086D03*
X02578D03*
X02637D03*
X02696D03*
X02755D03*
X02814D03*
X02874D03*
X02933D03*
G54D43*
X01437Y-01436D03*
X0124D03*
X01357Y-01319D03*
X01554D03*
G54D44*
X00728Y-01452D03*
Y-01302D03*
Y-01352D03*
Y-01402D03*
X01003Y-01452D03*
Y-01402D03*
Y-01352D03*
Y-01302D03*
G54D45*
X01651Y00816D03*
X01596Y00817D03*
Y00738D03*
X01651D03*
G54D46*
X03088Y00723D03*
Y00536D03*
Y01195D03*
Y01008D03*
G54D47*
X02942Y00708D03*
Y00551D03*
Y01181D03*
Y01023D03*
G54D48*
X00767Y0146D03*
Y01295D03*
G54D49*
X01053Y01409D03*
X00903D03*
X01003D03*
Y01267D03*
X01103D03*
X01053D03*
X00953D03*
X00903D03*
X01103Y01409D03*
X00953D03*
G54D50*
X0183Y00643D03*
X01751D03*
Y00714D03*
X0183D03*
G54D51*
X0297Y00629D03*
Y01102D03*
G54D52*
X01771Y01141D03*
G54D53*
X0296Y00295D03*
X03062D03*
G54D54*
X02039Y-00444D03*
X01976Y-00342D03*
X02039D03*
X01976Y-00444D03*
X02039Y-00287D03*
X01976Y-00185D03*
X02039D03*
X01976Y-00287D03*
G54D55*
X01976Y-00409D03*
X02039D03*
X01976Y-00377D03*
X02039D03*
X01976Y-00251D03*
X02039D03*
X01976Y-0022D03*
X02039D03*
G54D56*
X02175Y00964D03*
X02155D03*
Y01003D03*
X02175D03*
G54D57*
X02136Y00049D03*
Y00068D03*
Y00088D03*
Y00108D03*
X02036Y00108D03*
Y00088D03*
Y00068D03*
Y00049D03*
G54D58*
X00916Y00055D03*
X00843Y-00016D03*
G54D59*
X00692Y00728D03*
X00606D03*
X00692Y01003D03*
X00606D03*
M02*